solid OpenSCAD_Model
  facet normal -1.000000 -0.000012 0.000000
    outer loop
      vertex -44.738269 7.700000 7.000000
      vertex -44.738366 15.800168 7.000000
      vertex -44.738269 7.700000 0.000000
    endloop
  endfacet
  facet normal -1.000000 -0.000012 0.000000
    outer loop
      vertex -44.738269 7.700000 0.000000
      vertex -44.738366 15.800168 7.000000
      vertex -44.738366 15.800168 0.000000
    endloop
  endfacet
  facet normal 0.000000 0.000000 -1.000000
    outer loop
      vertex -44.738366 15.800168 0.000000
      vertex -40.000000 13.064396 0.000000
      vertex -44.738269 7.700000 0.000000
    endloop
  endfacet
  facet normal 0.000000 0.000000 -1.000000
    outer loop
      vertex -14.998076 23.750000 0.000000
      vertex -40.000000 10.435641 0.000000
      vertex -40.000000 13.064396 0.000000
    endloop
  endfacet
  facet normal 0.000000 0.000000 -1.000000
    outer loop
      vertex -40.000000 29.564396 0.000000
      vertex -40.000000 26.935641 0.000000
      vertex -44.738366 32.300168 0.000000
    endloop
  endfacet
  facet normal 0.000000 0.000000 -1.000000
    outer loop
      vertex -40.000000 26.935641 0.000000
      vertex -44.738269 24.200000 0.000000
      vertex -44.738366 32.300168 0.000000
    endloop
  endfacet
  facet normal 0.000000 -0.000000 -1.000000
    outer loop
      vertex -14.997962 32.749802 0.000000
      vertex -40.000000 26.935641 0.000000
      vertex -10.000000 35.000000 0.000000
    endloop
  endfacet
  facet normal 0.000000 0.000000 -1.000000
    outer loop
      vertex -10.000000 35.000000 0.000000
      vertex -40.000000 29.564396 0.000000
      vertex -40.000000 35.000000 0.000000
    endloop
  endfacet
  facet normal 0.000000 -0.000000 -1.000000
    outer loop
      vertex -40.000000 26.935641 0.000000
      vertex -40.000000 29.564396 0.000000
      vertex -10.000000 35.000000 0.000000
    endloop
  endfacet
  facet normal 0.000000 -0.000000 -1.000000
    outer loop
      vertex -14.998076 23.750000 0.000000
      vertex -40.000000 13.064396 0.000000
      vertex -14.997962 32.749802 0.000000
    endloop
  endfacet
  facet normal 0.000000 -0.000000 -1.000000
    outer loop
      vertex -40.000000 13.064396 0.000000
      vertex -40.000000 26.935641 0.000000
      vertex -14.997962 32.749802 0.000000
    endloop
  endfacet
  facet normal 0.000000 0.000000 -1.000000
    outer loop
      vertex -40.000000 10.435641 0.000000
      vertex -44.738269 7.700000 0.000000
      vertex -40.000000 13.064396 0.000000
    endloop
  endfacet
  facet normal -0.000000 0.000000 -1.000000
    outer loop
      vertex -14.998076 23.750000 0.000000
      vertex -10.000000 26.635641 0.000000
      vertex -10.000000 21.500000 0.000000
    endloop
  endfacet
  facet normal -0.000000 0.000000 -1.000000
    outer loop
      vertex -14.997962 16.249802 0.000000
      vertex -10.000000 18.500000 0.000000
      vertex -10.000000 13.364312 0.000000
    endloop
  endfacet
  facet normal 0.000000 0.000000 -1.000000
    outer loop
      vertex -40.000000 10.435641 0.000000
      vertex -10.000000 21.500000 0.000000
      vertex -10.000000 18.500000 0.000000
    endloop
  endfacet
  facet normal 0.000000 0.000000 -1.000000
    outer loop
      vertex -40.000000 10.435641 0.000000
      vertex -14.998076 23.750000 0.000000
      vertex -10.000000 21.500000 0.000000
    endloop
  endfacet
  facet normal -0.000000 0.000000 -1.000000
    outer loop
      vertex -14.998076 7.250000 0.000000
      vertex -10.000000 10.135641 0.000000
      vertex -10.000000 5.000000 0.000000
    endloop
  endfacet
  facet normal -0.000000 0.000000 -1.000000
    outer loop
      vertex -14.997962 32.749802 0.000000
      vertex -10.000000 35.000000 0.000000
      vertex -10.000000 29.864312 0.000000
    endloop
  endfacet
  facet normal 0.000000 0.000000 -1.000000
    outer loop
      vertex -40.000000 10.435641 0.000000
      vertex -10.000000 18.500000 0.000000
      vertex -14.997962 16.249802 0.000000
    endloop
  endfacet
  facet normal -0.000000 0.000000 -1.000000
    outer loop
      vertex -40.000000 10.435641 0.000000
      vertex -14.997962 16.249802 0.000000
      vertex -14.998076 7.250000 0.000000
    endloop
  endfacet
  facet normal 0.000000 0.000000 -1.000000
    outer loop
      vertex -40.000000 10.435641 0.000000
      vertex -14.998076 7.250000 0.000000
      vertex -10.000000 5.000000 0.000000
    endloop
  endfacet
  facet normal 0.000000 0.000000 -1.000000
    outer loop
      vertex -40.000000 10.435641 0.000000
      vertex -10.000000 5.000000 0.000000
      vertex -40.000000 5.000000 0.000000
    endloop
  endfacet
  facet normal 0.500010 0.866019 -0.000000
    outer loop
      vertex -40.000000 13.064396 7.000000
      vertex -40.000000 13.064396 0.000000
      vertex -44.738366 15.800168 7.000000
    endloop
  endfacet
  facet normal 0.500010 0.866019 -0.000000
    outer loop
      vertex -44.738366 15.800168 7.000000
      vertex -40.000000 13.064396 0.000000
      vertex -44.738366 15.800168 0.000000
    endloop
  endfacet
  facet normal 0.500000 -0.866025 0.000000
    outer loop
      vertex -40.000000 10.435641 0.000000
      vertex -40.000000 10.435641 7.000000
      vertex -44.738269 7.700000 7.000000
    endloop
  endfacet
  facet normal 0.500000 -0.866025 0.000000
    outer loop
      vertex -44.738269 7.700000 0.000000
      vertex -40.000000 10.435641 0.000000
      vertex -44.738269 7.700000 7.000000
    endloop
  endfacet
  facet normal -0.000000 0.000000 1.000000
    outer loop
      vertex -40.000000 13.064396 7.000000
      vertex -44.738366 15.800168 7.000000
      vertex -44.738269 7.700000 7.000000
    endloop
  endfacet
  facet normal 0.000000 0.000000 1.000000
    outer loop
      vertex -10.000000 5.000000 7.000000
      vertex -40.000000 13.064396 7.000000
      vertex -40.000000 10.435641 7.000000
    endloop
  endfacet
  facet normal -0.000000 0.000000 1.000000
    outer loop
      vertex -40.000000 10.435641 7.000000
      vertex -40.000000 13.064396 7.000000
      vertex -44.738269 7.700000 7.000000
    endloop
  endfacet
  facet normal -0.000000 0.000000 1.000000
    outer loop
      vertex -10.000000 5.000000 7.000000
      vertex -40.000000 10.435641 7.000000
      vertex -40.000000 5.000000 7.000000
    endloop
  endfacet
  facet normal 0.000000 0.000000 1.000000
    outer loop
      vertex -14.998076 7.250000 7.000000
      vertex -14.997962 16.249802 7.000000
      vertex -40.000000 26.935641 7.000000
    endloop
  endfacet
  facet normal 0.000000 0.000000 1.000000
    outer loop
      vertex -10.000000 10.135641 7.000000
      vertex -14.998076 7.250000 7.000000
      vertex -10.000000 5.000000 7.000000
    endloop
  endfacet
  facet normal -0.000000 0.000000 1.000000
    outer loop
      vertex -40.000000 29.564396 7.000000
      vertex -44.738366 32.300168 7.000000
      vertex -44.738269 24.200000 7.000000
    endloop
  endfacet
  facet normal 0.000000 0.000000 1.000000
    outer loop
      vertex -10.000000 18.500000 7.000000
      vertex -14.997962 16.249802 7.000000
      vertex -10.000000 13.364312 7.000000
    endloop
  endfacet
  facet normal 0.000000 0.000000 1.000000
    outer loop
      vertex -10.000000 26.635641 7.000000
      vertex -14.998076 23.750000 7.000000
      vertex -10.000000 21.500000 7.000000
    endloop
  endfacet
  facet normal 0.000000 0.000000 1.000000
    outer loop
      vertex -10.000000 35.000000 7.000000
      vertex -14.997962 32.749802 7.000000
      vertex -10.000000 29.864312 7.000000
    endloop
  endfacet
  facet normal 0.000000 0.000000 1.000000
    outer loop
      vertex -40.000000 35.000000 7.000000
      vertex -14.997962 32.749802 7.000000
      vertex -10.000000 35.000000 7.000000
    endloop
  endfacet
  facet normal 0.000000 0.000000 1.000000
    outer loop
      vertex -44.738269 24.200000 7.000000
      vertex -40.000000 26.935641 7.000000
      vertex -40.000000 29.564396 7.000000
    endloop
  endfacet
  facet normal 0.000000 -0.000000 1.000000
    outer loop
      vertex -40.000000 35.000000 7.000000
      vertex -40.000000 29.564396 7.000000
      vertex -14.997962 32.749802 7.000000
    endloop
  endfacet
  facet normal 0.000000 -0.000000 1.000000
    outer loop
      vertex -40.000000 29.564396 7.000000
      vertex -40.000000 26.935641 7.000000
      vertex -14.997962 32.749802 7.000000
    endloop
  endfacet
  facet normal 0.000000 0.000000 1.000000
    outer loop
      vertex -40.000000 26.935641 7.000000
      vertex -10.000000 21.500000 7.000000
      vertex -14.998076 23.750000 7.000000
    endloop
  endfacet
  facet normal 0.000000 0.000000 1.000000
    outer loop
      vertex -40.000000 26.935641 7.000000
      vertex -10.000000 18.500000 7.000000
      vertex -10.000000 21.500000 7.000000
    endloop
  endfacet
  facet normal 0.000000 0.000000 1.000000
    outer loop
      vertex -40.000000 26.935641 7.000000
      vertex -14.997962 16.249802 7.000000
      vertex -10.000000 18.500000 7.000000
    endloop
  endfacet
  facet normal 0.000000 0.000000 1.000000
    outer loop
      vertex -14.998076 23.750000 7.000000
      vertex -14.997962 32.749802 7.000000
      vertex -40.000000 26.935641 7.000000
    endloop
  endfacet
  facet normal -0.000000 -0.000000 1.000000
    outer loop
      vertex -14.998076 7.250000 7.000000
      vertex -40.000000 13.064396 7.000000
      vertex -10.000000 5.000000 7.000000
    endloop
  endfacet
  facet normal 0.000000 -0.000000 1.000000
    outer loop
      vertex -40.000000 26.935641 7.000000
      vertex -40.000000 13.064396 7.000000
      vertex -14.998076 7.250000 7.000000
    endloop
  endfacet
  facet normal -1.000000 -0.000000 -0.000000
    outer loop
      vertex -40.000000 5.000000 0.000000
      vertex -40.000000 5.000000 7.000000
      vertex -40.000000 10.435641 0.000000
    endloop
  endfacet
  facet normal -1.000000 0.000000 0.000000
    outer loop
      vertex -40.000000 10.435641 0.000000
      vertex -40.000000 5.000000 7.000000
      vertex -40.000000 10.435641 7.000000
    endloop
  endfacet
  facet normal 0.000000 -1.000000 0.000000
    outer loop
      vertex -40.000000 5.000000 7.000000
      vertex -40.000000 5.000000 0.000000
      vertex -10.000000 5.000000 0.000000
    endloop
  endfacet
  facet normal 0.000000 -1.000000 0.000000
    outer loop
      vertex -10.000000 5.000000 7.000000
      vertex -40.000000 5.000000 7.000000
      vertex -10.000000 5.000000 0.000000
    endloop
  endfacet
  facet normal 1.000000 0.000000 -0.000000
    outer loop
      vertex -10.000000 5.000000 7.000000
      vertex -10.000000 5.000000 0.000000
      vertex -10.000000 10.135641 0.000000
    endloop
  endfacet
  facet normal 1.000000 0.000000 0.000000
    outer loop
      vertex -10.000000 10.135641 7.000000
      vertex -10.000000 5.000000 7.000000
      vertex -10.000000 10.135641 0.000000
    endloop
  endfacet
  facet normal -0.500000 0.866025 0.000000
    outer loop
      vertex -14.998076 7.250000 0.000000
      vertex -14.998076 7.250000 7.000000
      vertex -10.000000 10.135641 0.000000
    endloop
  endfacet
  facet normal -0.500000 0.866025 0.000000
    outer loop
      vertex -10.000000 10.135641 0.000000
      vertex -14.998076 7.250000 7.000000
      vertex -10.000000 10.135641 7.000000
    endloop
  endfacet
  facet normal 1.000000 -0.000013 0.000000
    outer loop
      vertex -14.998076 7.250000 7.000000
      vertex -14.998076 7.250000 0.000000
      vertex -14.997962 16.249802 0.000000
    endloop
  endfacet
  facet normal 1.000000 -0.000013 0.000000
    outer loop
      vertex -14.997962 16.249802 7.000000
      vertex -14.998076 7.250000 7.000000
      vertex -14.997962 16.249802 0.000000
    endloop
  endfacet
  facet normal -0.499989 -0.866032 0.000000
    outer loop
      vertex -14.997962 16.249802 7.000000
      vertex -14.997962 16.249802 0.000000
      vertex -10.000000 13.364312 0.000000
    endloop
  endfacet
  facet normal -0.499989 -0.866032 0.000000
    outer loop
      vertex -10.000000 13.364312 7.000000
      vertex -14.997962 16.249802 7.000000
      vertex -10.000000 13.364312 0.000000
    endloop
  endfacet
  facet normal 1.000000 0.000000 -0.000000
    outer loop
      vertex -10.000000 13.364312 7.000000
      vertex -10.000000 13.364312 0.000000
      vertex -10.000000 18.500000 0.000000
    endloop
  endfacet
  facet normal 1.000000 0.000000 0.000000
    outer loop
      vertex -10.000000 18.500000 7.000000
      vertex -10.000000 13.364312 7.000000
      vertex -10.000000 18.500000 0.000000
    endloop
  endfacet
  facet normal 1.000000 0.000000 -0.000000
    outer loop
      vertex -10.000000 18.500000 7.000000
      vertex -10.000000 18.500000 0.000000
      vertex -10.000000 21.500000 0.000000
    endloop
  endfacet
  facet normal 1.000000 0.000000 0.000000
    outer loop
      vertex -10.000000 21.500000 7.000000
      vertex -10.000000 18.500000 7.000000
      vertex -10.000000 21.500000 0.000000
    endloop
  endfacet
  facet normal 1.000000 0.000000 -0.000000
    outer loop
      vertex -10.000000 21.500000 7.000000
      vertex -10.000000 21.500000 0.000000
      vertex -10.000000 26.635641 0.000000
    endloop
  endfacet
  facet normal 1.000000 0.000000 0.000000
    outer loop
      vertex -10.000000 26.635641 7.000000
      vertex -10.000000 21.500000 7.000000
      vertex -10.000000 26.635641 0.000000
    endloop
  endfacet
  facet normal -0.500000 0.866025 0.000000
    outer loop
      vertex -14.998076 23.750000 0.000000
      vertex -14.998076 23.750000 7.000000
      vertex -10.000000 26.635641 0.000000
    endloop
  endfacet
  facet normal -0.500000 0.866025 0.000000
    outer loop
      vertex -10.000000 26.635641 0.000000
      vertex -14.998076 23.750000 7.000000
      vertex -10.000000 26.635641 7.000000
    endloop
  endfacet
  facet normal 1.000000 -0.000013 0.000000
    outer loop
      vertex -14.998076 23.750000 7.000000
      vertex -14.998076 23.750000 0.000000
      vertex -14.997962 32.749802 0.000000
    endloop
  endfacet
  facet normal 1.000000 -0.000013 0.000000
    outer loop
      vertex -14.997962 32.749802 7.000000
      vertex -14.998076 23.750000 7.000000
      vertex -14.997962 32.749802 0.000000
    endloop
  endfacet
  facet normal -0.499989 -0.866032 0.000000
    outer loop
      vertex -14.997962 32.749802 7.000000
      vertex -14.997962 32.749802 0.000000
      vertex -10.000000 29.864312 0.000000
    endloop
  endfacet
  facet normal -0.499989 -0.866032 0.000000
    outer loop
      vertex -10.000000 29.864312 7.000000
      vertex -14.997962 32.749802 7.000000
      vertex -10.000000 29.864312 0.000000
    endloop
  endfacet
  facet normal 1.000000 0.000000 -0.000000
    outer loop
      vertex -10.000000 29.864312 7.000000
      vertex -10.000000 29.864312 0.000000
      vertex -10.000000 35.000000 0.000000
    endloop
  endfacet
  facet normal 1.000000 0.000000 0.000000
    outer loop
      vertex -10.000000 35.000000 7.000000
      vertex -10.000000 29.864312 7.000000
      vertex -10.000000 35.000000 0.000000
    endloop
  endfacet
  facet normal 0.000000 1.000000 0.000000
    outer loop
      vertex -40.000000 35.000000 0.000000
      vertex -40.000000 35.000000 7.000000
      vertex -10.000000 35.000000 0.000000
    endloop
  endfacet
  facet normal 0.000000 1.000000 0.000000
    outer loop
      vertex -10.000000 35.000000 0.000000
      vertex -40.000000 35.000000 7.000000
      vertex -10.000000 35.000000 7.000000
    endloop
  endfacet
  facet normal -1.000000 -0.000000 -0.000000
    outer loop
      vertex -40.000000 29.564396 0.000000
      vertex -40.000000 29.564396 7.000000
      vertex -40.000000 35.000000 0.000000
    endloop
  endfacet
  facet normal -1.000000 0.000000 0.000000
    outer loop
      vertex -40.000000 35.000000 0.000000
      vertex -40.000000 29.564396 7.000000
      vertex -40.000000 35.000000 7.000000
    endloop
  endfacet
  facet normal 0.500010 0.866019 -0.000000
    outer loop
      vertex -40.000000 29.564396 7.000000
      vertex -40.000000 29.564396 0.000000
      vertex -44.738366 32.300168 7.000000
    endloop
  endfacet
  facet normal 0.500010 0.866019 -0.000000
    outer loop
      vertex -44.738366 32.300168 7.000000
      vertex -40.000000 29.564396 0.000000
      vertex -44.738366 32.300168 0.000000
    endloop
  endfacet
  facet normal -1.000000 -0.000012 0.000000
    outer loop
      vertex -44.738269 24.200000 7.000000
      vertex -44.738366 32.300168 7.000000
      vertex -44.738269 24.200000 0.000000
    endloop
  endfacet
  facet normal -1.000000 -0.000012 0.000000
    outer loop
      vertex -44.738269 24.200000 0.000000
      vertex -44.738366 32.300168 7.000000
      vertex -44.738366 32.300168 0.000000
    endloop
  endfacet
  facet normal 0.500000 -0.866025 0.000000
    outer loop
      vertex -40.000000 26.935641 0.000000
      vertex -40.000000 26.935641 7.000000
      vertex -44.738269 24.200000 7.000000
    endloop
  endfacet
  facet normal 0.500000 -0.866025 0.000000
    outer loop
      vertex -44.738269 24.200000 0.000000
      vertex -40.000000 26.935641 0.000000
      vertex -44.738269 24.200000 7.000000
    endloop
  endfacet
  facet normal -1.000000 -0.000000 -0.000000
    outer loop
      vertex -40.000000 13.064396 0.000000
      vertex -40.000000 13.064396 7.000000
      vertex -40.000000 26.935641 0.000000
    endloop
  endfacet
  facet normal -1.000000 0.000000 0.000000
    outer loop
      vertex -40.000000 26.935641 0.000000
      vertex -40.000000 13.064396 7.000000
      vertex -40.000000 26.935641 7.000000
    endloop
  endfacet
  facet normal -1.000000 -0.000058 0.000000
    outer loop
      vertex 5.326683 7.812500 7.000000
      vertex 5.326225 15.687293 7.000000
      vertex 5.326683 7.812500 0.000000
    endloop
  endfacet
  facet normal -1.000000 -0.000058 0.000000
    outer loop
      vertex 5.326683 7.812500 0.000000
      vertex 5.326225 15.687293 7.000000
      vertex 5.326225 15.687293 0.000000
    endloop
  endfacet
  facet normal 0.000000 0.000000 -1.000000
    outer loop
      vertex 5.326225 15.687293 0.000000
      vertex 10.000000 12.989211 0.000000
      vertex 5.326683 7.812500 0.000000
    endloop
  endfacet
  facet normal 0.000000 0.000000 -1.000000
    outer loop
      vertex 35.001924 23.750000 0.000000
      vertex 10.000000 10.510641 0.000000
      vertex 10.000000 12.989211 0.000000
    endloop
  endfacet
  facet normal 0.000000 0.000000 -1.000000
    outer loop
      vertex 10.000000 29.489211 0.000000
      vertex 10.000000 27.010641 0.000000
      vertex 5.326225 32.187293 0.000000
    endloop
  endfacet
  facet normal 0.000000 0.000000 -1.000000
    outer loop
      vertex 10.000000 27.010641 0.000000
      vertex 5.326683 24.312500 0.000000
      vertex 5.326225 32.187293 0.000000
    endloop
  endfacet
  facet normal 0.000000 -0.000000 -1.000000
    outer loop
      vertex 35.002038 32.749802 0.000000
      vertex 10.000000 27.010641 0.000000
      vertex 40.000000 35.000000 0.000000
    endloop
  endfacet
  facet normal 0.000000 0.000000 -1.000000
    outer loop
      vertex 40.000000 35.000000 0.000000
      vertex 10.000000 29.489211 0.000000
      vertex 10.000000 35.000000 0.000000
    endloop
  endfacet
  facet normal 0.000000 -0.000000 -1.000000
    outer loop
      vertex 10.000000 27.010641 0.000000
      vertex 10.000000 29.489211 0.000000
      vertex 40.000000 35.000000 0.000000
    endloop
  endfacet
  facet normal 0.000000 -0.000000 -1.000000
    outer loop
      vertex 35.001924 23.750000 0.000000
      vertex 10.000000 12.989211 0.000000
      vertex 35.002038 32.749802 0.000000
    endloop
  endfacet
  facet normal 0.000000 -0.000000 -1.000000
    outer loop
      vertex 10.000000 12.989211 0.000000
      vertex 10.000000 27.010641 0.000000
      vertex 35.002038 32.749802 0.000000
    endloop
  endfacet
  facet normal 0.000000 0.000000 -1.000000
    outer loop
      vertex 10.000000 10.510641 0.000000
      vertex 5.326683 7.812500 0.000000
      vertex 10.000000 12.989211 0.000000
    endloop
  endfacet
  facet normal -0.000000 0.000000 -1.000000
    outer loop
      vertex 35.001924 23.750000 0.000000
      vertex 40.000000 26.635641 0.000000
      vertex 40.000000 21.500000 0.000000
    endloop
  endfacet
  facet normal -0.000000 0.000000 -1.000000
    outer loop
      vertex 35.002038 16.249802 0.000000
      vertex 40.000000 18.500000 0.000000
      vertex 40.000000 13.364312 0.000000
    endloop
  endfacet
  facet normal 0.000000 0.000000 -1.000000
    outer loop
      vertex 10.000000 10.510641 0.000000
      vertex 40.000000 21.500000 0.000000
      vertex 40.000000 18.500000 0.000000
    endloop
  endfacet
  facet normal 0.000000 0.000000 -1.000000
    outer loop
      vertex 10.000000 10.510641 0.000000
      vertex 35.001924 23.750000 0.000000
      vertex 40.000000 21.500000 0.000000
    endloop
  endfacet
  facet normal -0.000000 0.000000 -1.000000
    outer loop
      vertex 35.001924 7.250000 0.000000
      vertex 40.000000 10.135641 0.000000
      vertex 40.000000 5.000000 0.000000
    endloop
  endfacet
  facet normal -0.000000 0.000000 -1.000000
    outer loop
      vertex 35.002038 32.749802 0.000000
      vertex 40.000000 35.000000 0.000000
      vertex 40.000000 29.864312 0.000000
    endloop
  endfacet
  facet normal 0.000000 0.000000 -1.000000
    outer loop
      vertex 10.000000 10.510641 0.000000
      vertex 40.000000 18.500000 0.000000
      vertex 35.002038 16.249802 0.000000
    endloop
  endfacet
  facet normal -0.000000 0.000000 -1.000000
    outer loop
      vertex 10.000000 10.510641 0.000000
      vertex 35.002038 16.249802 0.000000
      vertex 35.001924 7.250000 0.000000
    endloop
  endfacet
  facet normal 0.000000 0.000000 -1.000000
    outer loop
      vertex 10.000000 10.510641 0.000000
      vertex 35.001924 7.250000 0.000000
      vertex 40.000000 5.000000 0.000000
    endloop
  endfacet
  facet normal 0.000000 0.000000 -1.000000
    outer loop
      vertex 10.000000 10.510641 0.000000
      vertex 40.000000 5.000000 0.000000
      vertex 10.000000 5.000000 0.000000
    endloop
  endfacet
  facet normal 0.499955 0.866051 -0.000000
    outer loop
      vertex 10.000000 12.989211 7.000000
      vertex 10.000000 12.989211 0.000000
      vertex 5.326225 15.687293 7.000000
    endloop
  endfacet
  facet normal 0.499955 0.866051 -0.000000
    outer loop
      vertex 5.326225 15.687293 7.000000
      vertex 10.000000 12.989211 0.000000
      vertex 5.326225 15.687293 0.000000
    endloop
  endfacet
  facet normal 0.500000 -0.866025 0.000000
    outer loop
      vertex 10.000000 10.510641 0.000000
      vertex 10.000000 10.510641 7.000000
      vertex 5.326683 7.812500 7.000000
    endloop
  endfacet
  facet normal 0.500000 -0.866025 0.000000
    outer loop
      vertex 5.326683 7.812500 0.000000
      vertex 10.000000 10.510641 0.000000
      vertex 5.326683 7.812500 7.000000
    endloop
  endfacet
  facet normal -0.000000 0.000000 1.000000
    outer loop
      vertex 10.000000 12.989211 7.000000
      vertex 5.326225 15.687293 7.000000
      vertex 5.326683 7.812500 7.000000
    endloop
  endfacet
  facet normal 0.000000 0.000000 1.000000
    outer loop
      vertex 40.000000 5.000000 7.000000
      vertex 10.000000 12.989211 7.000000
      vertex 10.000000 10.510641 7.000000
    endloop
  endfacet
  facet normal -0.000000 0.000000 1.000000
    outer loop
      vertex 10.000000 10.510641 7.000000
      vertex 10.000000 12.989211 7.000000
      vertex 5.326683 7.812500 7.000000
    endloop
  endfacet
  facet normal -0.000000 0.000000 1.000000
    outer loop
      vertex 40.000000 5.000000 7.000000
      vertex 10.000000 10.510641 7.000000
      vertex 10.000000 5.000000 7.000000
    endloop
  endfacet
  facet normal 0.000000 0.000000 1.000000
    outer loop
      vertex 35.001924 7.250000 7.000000
      vertex 35.002038 16.249802 7.000000
      vertex 10.000000 27.010641 7.000000
    endloop
  endfacet
  facet normal 0.000000 0.000000 1.000000
    outer loop
      vertex 40.000000 10.135641 7.000000
      vertex 35.001924 7.250000 7.000000
      vertex 40.000000 5.000000 7.000000
    endloop
  endfacet
  facet normal -0.000000 0.000000 1.000000
    outer loop
      vertex 10.000000 29.489211 7.000000
      vertex 5.326225 32.187293 7.000000
      vertex 5.326683 24.312500 7.000000
    endloop
  endfacet
  facet normal 0.000000 0.000000 1.000000
    outer loop
      vertex 40.000000 18.500000 7.000000
      vertex 35.002038 16.249802 7.000000
      vertex 40.000000 13.364312 7.000000
    endloop
  endfacet
  facet normal 0.000000 0.000000 1.000000
    outer loop
      vertex 40.000000 26.635641 7.000000
      vertex 35.001924 23.750000 7.000000
      vertex 40.000000 21.500000 7.000000
    endloop
  endfacet
  facet normal 0.000000 0.000000 1.000000
    outer loop
      vertex 40.000000 35.000000 7.000000
      vertex 35.002038 32.749802 7.000000
      vertex 40.000000 29.864312 7.000000
    endloop
  endfacet
  facet normal 0.000000 0.000000 1.000000
    outer loop
      vertex 10.000000 35.000000 7.000000
      vertex 35.002038 32.749802 7.000000
      vertex 40.000000 35.000000 7.000000
    endloop
  endfacet
  facet normal 0.000000 0.000000 1.000000
    outer loop
      vertex 5.326683 24.312500 7.000000
      vertex 10.000000 27.010641 7.000000
      vertex 10.000000 29.489211 7.000000
    endloop
  endfacet
  facet normal 0.000000 -0.000000 1.000000
    outer loop
      vertex 10.000000 35.000000 7.000000
      vertex 10.000000 29.489211 7.000000
      vertex 35.002038 32.749802 7.000000
    endloop
  endfacet
  facet normal 0.000000 -0.000000 1.000000
    outer loop
      vertex 10.000000 29.489211 7.000000
      vertex 10.000000 27.010641 7.000000
      vertex 35.002038 32.749802 7.000000
    endloop
  endfacet
  facet normal 0.000000 0.000000 1.000000
    outer loop
      vertex 10.000000 27.010641 7.000000
      vertex 40.000000 21.500000 7.000000
      vertex 35.001924 23.750000 7.000000
    endloop
  endfacet
  facet normal 0.000000 0.000000 1.000000
    outer loop
      vertex 10.000000 27.010641 7.000000
      vertex 40.000000 18.500000 7.000000
      vertex 40.000000 21.500000 7.000000
    endloop
  endfacet
  facet normal 0.000000 0.000000 1.000000
    outer loop
      vertex 10.000000 27.010641 7.000000
      vertex 35.002038 16.249802 7.000000
      vertex 40.000000 18.500000 7.000000
    endloop
  endfacet
  facet normal 0.000000 0.000000 1.000000
    outer loop
      vertex 35.001924 23.750000 7.000000
      vertex 35.002038 32.749802 7.000000
      vertex 10.000000 27.010641 7.000000
    endloop
  endfacet
  facet normal -0.000000 -0.000000 1.000000
    outer loop
      vertex 35.001924 7.250000 7.000000
      vertex 10.000000 12.989211 7.000000
      vertex 40.000000 5.000000 7.000000
    endloop
  endfacet
  facet normal 0.000000 -0.000000 1.000000
    outer loop
      vertex 10.000000 27.010641 7.000000
      vertex 10.000000 12.989211 7.000000
      vertex 35.001924 7.250000 7.000000
    endloop
  endfacet
  facet normal -1.000000 -0.000000 -0.000000
    outer loop
      vertex 10.000000 5.000000 0.000000
      vertex 10.000000 5.000000 7.000000
      vertex 10.000000 10.510641 0.000000
    endloop
  endfacet
  facet normal -1.000000 0.000000 0.000000
    outer loop
      vertex 10.000000 10.510641 0.000000
      vertex 10.000000 5.000000 7.000000
      vertex 10.000000 10.510641 7.000000
    endloop
  endfacet
  facet normal 0.000000 -1.000000 0.000000
    outer loop
      vertex 10.000000 5.000000 7.000000
      vertex 10.000000 5.000000 0.000000
      vertex 40.000000 5.000000 0.000000
    endloop
  endfacet
  facet normal 0.000000 -1.000000 0.000000
    outer loop
      vertex 40.000000 5.000000 7.000000
      vertex 10.000000 5.000000 7.000000
      vertex 40.000000 5.000000 0.000000
    endloop
  endfacet
  facet normal 1.000000 0.000000 -0.000000
    outer loop
      vertex 40.000000 5.000000 7.000000
      vertex 40.000000 5.000000 0.000000
      vertex 40.000000 10.135641 0.000000
    endloop
  endfacet
  facet normal 1.000000 0.000000 0.000000
    outer loop
      vertex 40.000000 10.135641 7.000000
      vertex 40.000000 5.000000 7.000000
      vertex 40.000000 10.135641 0.000000
    endloop
  endfacet
  facet normal -0.500000 0.866025 0.000000
    outer loop
      vertex 35.001924 7.250000 0.000000
      vertex 35.001924 7.250000 7.000000
      vertex 40.000000 10.135641 0.000000
    endloop
  endfacet
  facet normal -0.500000 0.866025 0.000000
    outer loop
      vertex 40.000000 10.135641 0.000000
      vertex 35.001924 7.250000 7.000000
      vertex 40.000000 10.135641 7.000000
    endloop
  endfacet
  facet normal 1.000000 -0.000013 0.000000
    outer loop
      vertex 35.001924 7.250000 7.000000
      vertex 35.001924 7.250000 0.000000
      vertex 35.002038 16.249802 0.000000
    endloop
  endfacet
  facet normal 1.000000 -0.000013 0.000000
    outer loop
      vertex 35.002038 16.249802 7.000000
      vertex 35.001924 7.250000 7.000000
      vertex 35.002038 16.249802 0.000000
    endloop
  endfacet
  facet normal -0.499989 -0.866032 0.000000
    outer loop
      vertex 35.002038 16.249802 7.000000
      vertex 35.002038 16.249802 0.000000
      vertex 40.000000 13.364312 0.000000
    endloop
  endfacet
  facet normal -0.499989 -0.866032 0.000000
    outer loop
      vertex 40.000000 13.364312 7.000000
      vertex 35.002038 16.249802 7.000000
      vertex 40.000000 13.364312 0.000000
    endloop
  endfacet
  facet normal 1.000000 0.000000 -0.000000
    outer loop
      vertex 40.000000 13.364312 7.000000
      vertex 40.000000 13.364312 0.000000
      vertex 40.000000 18.500000 0.000000
    endloop
  endfacet
  facet normal 1.000000 0.000000 0.000000
    outer loop
      vertex 40.000000 18.500000 7.000000
      vertex 40.000000 13.364312 7.000000
      vertex 40.000000 18.500000 0.000000
    endloop
  endfacet
  facet normal 1.000000 0.000000 -0.000000
    outer loop
      vertex 40.000000 18.500000 7.000000
      vertex 40.000000 18.500000 0.000000
      vertex 40.000000 21.500000 0.000000
    endloop
  endfacet
  facet normal 1.000000 0.000000 0.000000
    outer loop
      vertex 40.000000 21.500000 7.000000
      vertex 40.000000 18.500000 7.000000
      vertex 40.000000 21.500000 0.000000
    endloop
  endfacet
  facet normal 1.000000 0.000000 -0.000000
    outer loop
      vertex 40.000000 21.500000 7.000000
      vertex 40.000000 21.500000 0.000000
      vertex 40.000000 26.635641 0.000000
    endloop
  endfacet
  facet normal 1.000000 0.000000 0.000000
    outer loop
      vertex 40.000000 26.635641 7.000000
      vertex 40.000000 21.500000 7.000000
      vertex 40.000000 26.635641 0.000000
    endloop
  endfacet
  facet normal -0.500000 0.866025 0.000000
    outer loop
      vertex 35.001924 23.750000 0.000000
      vertex 35.001924 23.750000 7.000000
      vertex 40.000000 26.635641 0.000000
    endloop
  endfacet
  facet normal -0.500000 0.866025 0.000000
    outer loop
      vertex 40.000000 26.635641 0.000000
      vertex 35.001924 23.750000 7.000000
      vertex 40.000000 26.635641 7.000000
    endloop
  endfacet
  facet normal 1.000000 -0.000013 0.000000
    outer loop
      vertex 35.001924 23.750000 7.000000
      vertex 35.001924 23.750000 0.000000
      vertex 35.002038 32.749802 0.000000
    endloop
  endfacet
  facet normal 1.000000 -0.000013 0.000000
    outer loop
      vertex 35.002038 32.749802 7.000000
      vertex 35.001924 23.750000 7.000000
      vertex 35.002038 32.749802 0.000000
    endloop
  endfacet
  facet normal -0.499989 -0.866032 0.000000
    outer loop
      vertex 35.002038 32.749802 7.000000
      vertex 35.002038 32.749802 0.000000
      vertex 40.000000 29.864312 0.000000
    endloop
  endfacet
  facet normal -0.499989 -0.866032 0.000000
    outer loop
      vertex 40.000000 29.864312 7.000000
      vertex 35.002038 32.749802 7.000000
      vertex 40.000000 29.864312 0.000000
    endloop
  endfacet
  facet normal 1.000000 0.000000 -0.000000
    outer loop
      vertex 40.000000 29.864312 7.000000
      vertex 40.000000 29.864312 0.000000
      vertex 40.000000 35.000000 0.000000
    endloop
  endfacet
  facet normal 1.000000 0.000000 0.000000
    outer loop
      vertex 40.000000 35.000000 7.000000
      vertex 40.000000 29.864312 7.000000
      vertex 40.000000 35.000000 0.000000
    endloop
  endfacet
  facet normal 0.000000 1.000000 0.000000
    outer loop
      vertex 10.000000 35.000000 0.000000
      vertex 10.000000 35.000000 7.000000
      vertex 40.000000 35.000000 0.000000
    endloop
  endfacet
  facet normal 0.000000 1.000000 0.000000
    outer loop
      vertex 40.000000 35.000000 0.000000
      vertex 10.000000 35.000000 7.000000
      vertex 40.000000 35.000000 7.000000
    endloop
  endfacet
  facet normal -1.000000 -0.000000 -0.000000
    outer loop
      vertex 10.000000 29.489211 0.000000
      vertex 10.000000 29.489211 7.000000
      vertex 10.000000 35.000000 0.000000
    endloop
  endfacet
  facet normal -1.000000 0.000000 0.000000
    outer loop
      vertex 10.000000 35.000000 0.000000
      vertex 10.000000 29.489211 7.000000
      vertex 10.000000 35.000000 7.000000
    endloop
  endfacet
  facet normal 0.499955 0.866051 -0.000000
    outer loop
      vertex 10.000000 29.489211 7.000000
      vertex 10.000000 29.489211 0.000000
      vertex 5.326225 32.187293 7.000000
    endloop
  endfacet
  facet normal 0.499955 0.866051 -0.000000
    outer loop
      vertex 5.326225 32.187293 7.000000
      vertex 10.000000 29.489211 0.000000
      vertex 5.326225 32.187293 0.000000
    endloop
  endfacet
  facet normal -1.000000 -0.000058 0.000000
    outer loop
      vertex 5.326683 24.312500 7.000000
      vertex 5.326225 32.187293 7.000000
      vertex 5.326683 24.312500 0.000000
    endloop
  endfacet
  facet normal -1.000000 -0.000058 0.000000
    outer loop
      vertex 5.326683 24.312500 0.000000
      vertex 5.326225 32.187293 7.000000
      vertex 5.326225 32.187293 0.000000
    endloop
  endfacet
  facet normal 0.500000 -0.866025 0.000000
    outer loop
      vertex 10.000000 27.010641 0.000000
      vertex 10.000000 27.010641 7.000000
      vertex 5.326683 24.312500 7.000000
    endloop
  endfacet
  facet normal 0.500000 -0.866025 0.000000
    outer loop
      vertex 5.326683 24.312500 0.000000
      vertex 10.000000 27.010641 0.000000
      vertex 5.326683 24.312500 7.000000
    endloop
  endfacet
  facet normal -1.000000 -0.000000 -0.000000
    outer loop
      vertex 10.000000 12.989211 0.000000
      vertex 10.000000 12.989211 7.000000
      vertex 10.000000 27.010641 0.000000
    endloop
  endfacet
  facet normal -1.000000 0.000000 0.000000
    outer loop
      vertex 10.000000 27.010641 0.000000
      vertex 10.000000 12.989211 7.000000
      vertex 10.000000 27.010641 7.000000
    endloop
  endfacet
  facet normal 0.500000 -0.866025 0.000000
    outer loop
      vertex -40.000000 -29.414359 0.000000
      vertex -40.000000 -29.414359 7.000000
      vertex -44.608365 -32.075000 7.000000
    endloop
  endfacet
  facet normal 0.500000 -0.866025 0.000000
    outer loop
      vertex -44.608365 -32.075000 0.000000
      vertex -40.000000 -29.414359 0.000000
      vertex -44.608365 -32.075000 7.000000
    endloop
  endfacet
  facet normal 0.000000 0.000000 -1.000000
    outer loop
      vertex -44.608365 -32.075000 0.000000
      vertex -44.608318 -24.425082 0.000000
      vertex -40.000000 -29.414359 0.000000
    endloop
  endfacet
  facet normal 0.000000 0.000000 -1.000000
    outer loop
      vertex -40.000000 -29.414359 0.000000
      vertex -44.608318 -24.425082 0.000000
      vertex -40.000000 -27.085657 0.000000
    endloop
  endfacet
  facet normal 0.000000 -0.000000 -1.000000
    outer loop
      vertex -14.998076 -16.250000 0.000000
      vertex -40.000000 -27.085657 0.000000
      vertex -14.997962 -7.250198 0.000000
    endloop
  endfacet
  facet normal 0.000000 0.000000 -1.000000
    outer loop
      vertex -40.000000 -12.914359 0.000000
      vertex -44.608365 -15.575000 0.000000
      vertex -44.608318 -7.925082 0.000000
    endloop
  endfacet
  facet normal 0.000000 0.000000 -1.000000
    outer loop
      vertex -40.000000 -12.914359 0.000000
      vertex -44.608318 -7.925082 0.000000
      vertex -40.000000 -10.585657 0.000000
    endloop
  endfacet
  facet normal 0.000000 0.000000 -1.000000
    outer loop
      vertex -14.998076 -16.250000 0.000000
      vertex -40.000000 -29.414359 0.000000
      vertex -40.000000 -27.085657 0.000000
    endloop
  endfacet
  facet normal 0.000000 -0.000000 -1.000000
    outer loop
      vertex -40.000000 -10.585657 0.000000
      vertex -40.000000 -5.000000 0.000000
      vertex -10.000000 -5.000000 0.000000
    endloop
  endfacet
  facet normal -0.000000 0.000000 -1.000000
    outer loop
      vertex -40.000000 -10.585657 0.000000
      vertex -10.000000 -5.000000 0.000000
      vertex -40.000000 -12.914359 0.000000
    endloop
  endfacet
  facet normal 0.000000 0.000000 -1.000000
    outer loop
      vertex -40.000000 -12.914359 0.000000
      vertex -10.000000 -5.000000 0.000000
      vertex -14.997962 -7.250198 0.000000
    endloop
  endfacet
  facet normal -0.000000 0.000000 -1.000000
    outer loop
      vertex -40.000000 -12.914359 0.000000
      vertex -14.997962 -7.250198 0.000000
      vertex -40.000000 -27.085657 0.000000
    endloop
  endfacet
  facet normal 0.000000 -0.000000 -1.000000
    outer loop
      vertex -14.998076 -32.750000 0.000000
      vertex -40.000000 -29.414359 0.000000
      vertex -14.997962 -23.750198 0.000000
    endloop
  endfacet
  facet normal -0.000000 0.000000 -1.000000
    outer loop
      vertex -14.997962 -7.250198 0.000000
      vertex -10.000000 -5.000000 0.000000
      vertex -10.000000 -10.135688 0.000000
    endloop
  endfacet
  facet normal -0.000000 0.000000 -1.000000
    outer loop
      vertex -14.998076 -16.250000 0.000000
      vertex -10.000000 -13.364359 0.000000
      vertex -10.000000 -18.500000 0.000000
    endloop
  endfacet
  facet normal 0.000000 0.000000 -1.000000
    outer loop
      vertex -10.000000 -21.500000 0.000000
      vertex -10.000000 -26.635688 0.000000
      vertex -14.997962 -23.750198 0.000000
    endloop
  endfacet
  facet normal 0.000000 0.000000 -1.000000
    outer loop
      vertex -10.000000 -29.864359 0.000000
      vertex -10.000000 -35.000000 0.000000
      vertex -14.998076 -32.750000 0.000000
    endloop
  endfacet
  facet normal 0.000000 0.000000 -1.000000
    outer loop
      vertex -40.000000 -29.414359 0.000000
      vertex -14.998076 -16.250000 0.000000
      vertex -10.000000 -18.500000 0.000000
    endloop
  endfacet
  facet normal 0.000000 0.000000 -1.000000
    outer loop
      vertex -40.000000 -29.414359 0.000000
      vertex -10.000000 -18.500000 0.000000
      vertex -10.000000 -21.500000 0.000000
    endloop
  endfacet
  facet normal 0.000000 0.000000 -1.000000
    outer loop
      vertex -40.000000 -29.414359 0.000000
      vertex -10.000000 -21.500000 0.000000
      vertex -14.997962 -23.750198 0.000000
    endloop
  endfacet
  facet normal 0.000000 0.000000 -1.000000
    outer loop
      vertex -40.000000 -29.414359 0.000000
      vertex -14.998076 -32.750000 0.000000
      vertex -10.000000 -35.000000 0.000000
    endloop
  endfacet
  facet normal 0.000000 0.000000 -1.000000
    outer loop
      vertex -40.000000 -29.414359 0.000000
      vertex -10.000000 -35.000000 0.000000
      vertex -40.000000 -35.000000 0.000000
    endloop
  endfacet
  facet normal -1.000000 0.000006 0.000000
    outer loop
      vertex -44.608318 -24.425082 7.000000
      vertex -44.608318 -24.425082 0.000000
      vertex -44.608365 -32.075000 7.000000
    endloop
  endfacet
  facet normal -1.000000 0.000006 0.000000
    outer loop
      vertex -44.608365 -32.075000 7.000000
      vertex -44.608318 -24.425082 0.000000
      vertex -44.608365 -32.075000 0.000000
    endloop
  endfacet
  facet normal -1.000000 -0.000000 -0.000000
    outer loop
      vertex -40.000000 -35.000000 0.000000
      vertex -40.000000 -35.000000 7.000000
      vertex -40.000000 -29.414359 0.000000
    endloop
  endfacet
  facet normal -1.000000 0.000000 0.000000
    outer loop
      vertex -40.000000 -29.414359 0.000000
      vertex -40.000000 -35.000000 7.000000
      vertex -40.000000 -29.414359 7.000000
    endloop
  endfacet
  facet normal 0.000000 -0.000000 1.000000
    outer loop
      vertex -44.608318 -24.425082 7.000000
      vertex -44.608365 -32.075000 7.000000
      vertex -40.000000 -29.414359 7.000000
    endloop
  endfacet
  facet normal -0.000000 0.000000 1.000000
    outer loop
      vertex -40.000000 -27.085657 7.000000
      vertex -44.608318 -24.425082 7.000000
      vertex -40.000000 -29.414359 7.000000
    endloop
  endfacet
  facet normal 0.000000 0.000000 1.000000
    outer loop
      vertex -40.000000 -12.914359 7.000000
      vertex -10.000000 -18.500000 7.000000
      vertex -14.998076 -16.250000 7.000000
    endloop
  endfacet
  facet normal 0.000000 0.000000 1.000000
    outer loop
      vertex -40.000000 -35.000000 7.000000
      vertex -10.000000 -35.000000 7.000000
      vertex -40.000000 -29.414359 7.000000
    endloop
  endfacet
  facet normal 0.000000 0.000000 1.000000
    outer loop
      vertex -10.000000 -35.000000 7.000000
      vertex -10.000000 -29.864359 7.000000
      vertex -14.998076 -32.750000 7.000000
    endloop
  endfacet
  facet normal 0.000000 0.000000 1.000000
    outer loop
      vertex -10.000000 -26.635688 7.000000
      vertex -10.000000 -21.500000 7.000000
      vertex -14.997962 -23.750198 7.000000
    endloop
  endfacet
  facet normal 0.000000 0.000000 1.000000
    outer loop
      vertex -40.000000 -12.914359 7.000000
      vertex -14.998076 -16.250000 7.000000
      vertex -14.997962 -7.250198 7.000000
    endloop
  endfacet
  facet normal 0.000000 0.000000 1.000000
    outer loop
      vertex -10.000000 -18.500000 7.000000
      vertex -10.000000 -13.364359 7.000000
      vertex -14.998076 -16.250000 7.000000
    endloop
  endfacet
  facet normal 0.000000 0.000000 1.000000
    outer loop
      vertex -10.000000 -10.135688 7.000000
      vertex -10.000000 -5.000000 7.000000
      vertex -14.997962 -7.250198 7.000000
    endloop
  endfacet
  facet normal 0.000000 0.000000 1.000000
    outer loop
      vertex -10.000000 -5.000000 7.000000
      vertex -40.000000 -5.000000 7.000000
      vertex -14.997962 -7.250198 7.000000
    endloop
  endfacet
  facet normal -0.000000 0.000000 1.000000
    outer loop
      vertex -14.997962 -7.250198 7.000000
      vertex -40.000000 -5.000000 7.000000
      vertex -40.000000 -10.585657 7.000000
    endloop
  endfacet
  facet normal 0.000000 0.000000 1.000000
    outer loop
      vertex -40.000000 -12.914359 7.000000
      vertex -10.000000 -21.500000 7.000000
      vertex -10.000000 -18.500000 7.000000
    endloop
  endfacet
  facet normal 0.000000 0.000000 1.000000
    outer loop
      vertex -14.997962 -7.250198 7.000000
      vertex -40.000000 -10.585657 7.000000
      vertex -40.000000 -12.914359 7.000000
    endloop
  endfacet
  facet normal 0.000000 0.000000 1.000000
    outer loop
      vertex -10.000000 -35.000000 7.000000
      vertex -40.000000 -27.085657 7.000000
      vertex -40.000000 -29.414359 7.000000
    endloop
  endfacet
  facet normal 0.000000 0.000000 1.000000
    outer loop
      vertex -44.608365 -15.575000 7.000000
      vertex -40.000000 -10.585657 7.000000
      vertex -44.608318 -7.925082 7.000000
    endloop
  endfacet
  facet normal 0.000000 0.000000 1.000000
    outer loop
      vertex -44.608365 -15.575000 7.000000
      vertex -40.000000 -12.914359 7.000000
      vertex -40.000000 -10.585657 7.000000
    endloop
  endfacet
  facet normal 0.000000 0.000000 1.000000
    outer loop
      vertex -40.000000 -12.914359 7.000000
      vertex -14.997962 -23.750198 7.000000
      vertex -10.000000 -21.500000 7.000000
    endloop
  endfacet
  facet normal 0.000000 0.000000 1.000000
    outer loop
      vertex -40.000000 -12.914359 7.000000
      vertex -14.998076 -32.750000 7.000000
      vertex -14.997962 -23.750198 7.000000
    endloop
  endfacet
  facet normal -0.000000 -0.000000 1.000000
    outer loop
      vertex -14.998076 -32.750000 7.000000
      vertex -40.000000 -27.085657 7.000000
      vertex -10.000000 -35.000000 7.000000
    endloop
  endfacet
  facet normal 0.000000 -0.000000 1.000000
    outer loop
      vertex -40.000000 -12.914359 7.000000
      vertex -40.000000 -27.085657 7.000000
      vertex -14.998076 -32.750000 7.000000
    endloop
  endfacet
  facet normal 0.000000 -1.000000 0.000000
    outer loop
      vertex -40.000000 -35.000000 7.000000
      vertex -40.000000 -35.000000 0.000000
      vertex -10.000000 -35.000000 0.000000
    endloop
  endfacet
  facet normal 0.000000 -1.000000 0.000000
    outer loop
      vertex -10.000000 -35.000000 7.000000
      vertex -40.000000 -35.000000 7.000000
      vertex -10.000000 -35.000000 0.000000
    endloop
  endfacet
  facet normal 1.000000 0.000000 -0.000000
    outer loop
      vertex -10.000000 -35.000000 7.000000
      vertex -10.000000 -35.000000 0.000000
      vertex -10.000000 -29.864359 0.000000
    endloop
  endfacet
  facet normal 1.000000 0.000000 0.000000
    outer loop
      vertex -10.000000 -29.864359 7.000000
      vertex -10.000000 -35.000000 7.000000
      vertex -10.000000 -29.864359 0.000000
    endloop
  endfacet
  facet normal -0.500000 0.866025 0.000000
    outer loop
      vertex -14.998076 -32.750000 0.000000
      vertex -14.998076 -32.750000 7.000000
      vertex -10.000000 -29.864359 0.000000
    endloop
  endfacet
  facet normal -0.500000 0.866025 0.000000
    outer loop
      vertex -10.000000 -29.864359 0.000000
      vertex -14.998076 -32.750000 7.000000
      vertex -10.000000 -29.864359 7.000000
    endloop
  endfacet
  facet normal 1.000000 -0.000013 0.000000
    outer loop
      vertex -14.998076 -32.750000 7.000000
      vertex -14.998076 -32.750000 0.000000
      vertex -14.997962 -23.750198 0.000000
    endloop
  endfacet
  facet normal 1.000000 -0.000013 0.000000
    outer loop
      vertex -14.997962 -23.750198 7.000000
      vertex -14.998076 -32.750000 7.000000
      vertex -14.997962 -23.750198 0.000000
    endloop
  endfacet
  facet normal -0.499989 -0.866032 0.000000
    outer loop
      vertex -14.997962 -23.750198 7.000000
      vertex -14.997962 -23.750198 0.000000
      vertex -10.000000 -26.635688 0.000000
    endloop
  endfacet
  facet normal -0.499989 -0.866032 0.000000
    outer loop
      vertex -10.000000 -26.635688 7.000000
      vertex -14.997962 -23.750198 7.000000
      vertex -10.000000 -26.635688 0.000000
    endloop
  endfacet
  facet normal 1.000000 0.000000 -0.000000
    outer loop
      vertex -10.000000 -26.635688 7.000000
      vertex -10.000000 -26.635688 0.000000
      vertex -10.000000 -21.500000 0.000000
    endloop
  endfacet
  facet normal 1.000000 0.000000 0.000000
    outer loop
      vertex -10.000000 -21.500000 7.000000
      vertex -10.000000 -26.635688 7.000000
      vertex -10.000000 -21.500000 0.000000
    endloop
  endfacet
  facet normal 1.000000 0.000000 -0.000000
    outer loop
      vertex -10.000000 -21.500000 7.000000
      vertex -10.000000 -21.500000 0.000000
      vertex -10.000000 -18.500000 0.000000
    endloop
  endfacet
  facet normal 1.000000 0.000000 0.000000
    outer loop
      vertex -10.000000 -18.500000 7.000000
      vertex -10.000000 -21.500000 7.000000
      vertex -10.000000 -18.500000 0.000000
    endloop
  endfacet
  facet normal 1.000000 0.000000 -0.000000
    outer loop
      vertex -10.000000 -18.500000 7.000000
      vertex -10.000000 -18.500000 0.000000
      vertex -10.000000 -13.364359 0.000000
    endloop
  endfacet
  facet normal 1.000000 0.000000 0.000000
    outer loop
      vertex -10.000000 -13.364359 7.000000
      vertex -10.000000 -18.500000 7.000000
      vertex -10.000000 -13.364359 0.000000
    endloop
  endfacet
  facet normal -0.500000 0.866025 0.000000
    outer loop
      vertex -14.998076 -16.250000 0.000000
      vertex -14.998076 -16.250000 7.000000
      vertex -10.000000 -13.364359 0.000000
    endloop
  endfacet
  facet normal -0.500000 0.866025 0.000000
    outer loop
      vertex -10.000000 -13.364359 0.000000
      vertex -14.998076 -16.250000 7.000000
      vertex -10.000000 -13.364359 7.000000
    endloop
  endfacet
  facet normal 1.000000 -0.000013 0.000000
    outer loop
      vertex -14.998076 -16.250000 7.000000
      vertex -14.998076 -16.250000 0.000000
      vertex -14.997962 -7.250198 0.000000
    endloop
  endfacet
  facet normal 1.000000 -0.000013 0.000000
    outer loop
      vertex -14.997962 -7.250198 7.000000
      vertex -14.998076 -16.250000 7.000000
      vertex -14.997962 -7.250198 0.000000
    endloop
  endfacet
  facet normal -0.499989 -0.866032 0.000000
    outer loop
      vertex -14.997962 -7.250198 7.000000
      vertex -14.997962 -7.250198 0.000000
      vertex -10.000000 -10.135688 0.000000
    endloop
  endfacet
  facet normal -0.499989 -0.866032 0.000000
    outer loop
      vertex -10.000000 -10.135688 7.000000
      vertex -14.997962 -7.250198 7.000000
      vertex -10.000000 -10.135688 0.000000
    endloop
  endfacet
  facet normal 1.000000 0.000000 -0.000000
    outer loop
      vertex -10.000000 -10.135688 7.000000
      vertex -10.000000 -10.135688 0.000000
      vertex -10.000000 -5.000000 0.000000
    endloop
  endfacet
  facet normal 1.000000 0.000000 0.000000
    outer loop
      vertex -10.000000 -5.000000 7.000000
      vertex -10.000000 -10.135688 7.000000
      vertex -10.000000 -5.000000 0.000000
    endloop
  endfacet
  facet normal 0.000000 1.000000 0.000000
    outer loop
      vertex -40.000000 -5.000000 0.000000
      vertex -40.000000 -5.000000 7.000000
      vertex -10.000000 -5.000000 0.000000
    endloop
  endfacet
  facet normal 0.000000 1.000000 0.000000
    outer loop
      vertex -10.000000 -5.000000 0.000000
      vertex -40.000000 -5.000000 7.000000
      vertex -10.000000 -5.000000 7.000000
    endloop
  endfacet
  facet normal -1.000000 -0.000000 -0.000000
    outer loop
      vertex -40.000000 -10.585657 0.000000
      vertex -40.000000 -10.585657 7.000000
      vertex -40.000000 -5.000000 0.000000
    endloop
  endfacet
  facet normal -1.000000 0.000000 0.000000
    outer loop
      vertex -40.000000 -5.000000 0.000000
      vertex -40.000000 -10.585657 7.000000
      vertex -40.000000 -5.000000 7.000000
    endloop
  endfacet
  facet normal 0.499995 0.866028 -0.000000
    outer loop
      vertex -40.000000 -10.585657 7.000000
      vertex -40.000000 -10.585657 0.000000
      vertex -44.608318 -7.925082 7.000000
    endloop
  endfacet
  facet normal 0.499995 0.866028 -0.000000
    outer loop
      vertex -44.608318 -7.925082 7.000000
      vertex -40.000000 -10.585657 0.000000
      vertex -44.608318 -7.925082 0.000000
    endloop
  endfacet
  facet normal -1.000000 0.000006 0.000000
    outer loop
      vertex -44.608318 -7.925082 7.000000
      vertex -44.608318 -7.925082 0.000000
      vertex -44.608365 -15.575000 7.000000
    endloop
  endfacet
  facet normal -1.000000 0.000006 0.000000
    outer loop
      vertex -44.608365 -15.575000 7.000000
      vertex -44.608318 -7.925082 0.000000
      vertex -44.608365 -15.575000 0.000000
    endloop
  endfacet
  facet normal 0.500000 -0.866025 0.000000
    outer loop
      vertex -40.000000 -12.914359 0.000000
      vertex -40.000000 -12.914359 7.000000
      vertex -44.608365 -15.575000 7.000000
    endloop
  endfacet
  facet normal 0.500000 -0.866025 0.000000
    outer loop
      vertex -44.608365 -15.575000 0.000000
      vertex -40.000000 -12.914359 0.000000
      vertex -44.608365 -15.575000 7.000000
    endloop
  endfacet
  facet normal -1.000000 -0.000000 -0.000000
    outer loop
      vertex -40.000000 -27.085657 0.000000
      vertex -40.000000 -27.085657 7.000000
      vertex -40.000000 -12.914359 0.000000
    endloop
  endfacet
  facet normal -1.000000 0.000000 0.000000
    outer loop
      vertex -40.000000 -12.914359 0.000000
      vertex -40.000000 -27.085657 7.000000
      vertex -40.000000 -12.914359 7.000000
    endloop
  endfacet
  facet normal 0.499995 0.866028 -0.000000
    outer loop
      vertex -40.000000 -27.085657 7.000000
      vertex -40.000000 -27.085657 0.000000
      vertex -44.608318 -24.425082 7.000000
    endloop
  endfacet
  facet normal 0.499995 0.866028 -0.000000
    outer loop
      vertex -44.608318 -24.425082 7.000000
      vertex -40.000000 -27.085657 0.000000
      vertex -44.608318 -24.425082 0.000000
    endloop
  endfacet
endsolid OpenSCAD_Model
