solid Default
  facet normal -1.000000e+00 -2.800000e-05 0.000000e+00
    outer loop
      vertex -4.246644e+01 7.362500e+00 7.000000e+00
      vertex -4.246669e+01 1.613693e+01 7.000000e+00
      vertex -4.246644e+01 7.362500e+00 0.000000e+00
    endloop
  endfacet
  facet normal -1.000000e+00 -2.800000e-05 0.000000e+00
    outer loop
      vertex -4.246644e+01 7.362500e+00 0.000000e+00
      vertex -4.246669e+01 1.613693e+01 7.000000e+00
      vertex -4.246669e+01 1.613693e+01 0.000000e+00
    endloop
  endfacet
  facet normal 0.000000e+00 0.000000e+00 -1.000000e+00
    outer loop
      vertex -4.246669e+01 1.613693e+01 0.000000e+00
      vertex -3.753331e+01 1.328911e+01 0.000000e+00
      vertex -4.246644e+01 7.362500e+00 0.000000e+00
    endloop
  endfacet
  facet normal 0.000000e+00 0.000000e+00 -1.000000e+00
    outer loop
      vertex -1.253139e+01 2.375000e+01 0.000000e+00
      vertex -3.753331e+01 1.021064e+01 0.000000e+00
      vertex -3.753331e+01 1.328911e+01 0.000000e+00
    endloop
  endfacet
  facet normal 0.000000e+00 0.000000e+00 -1.000000e+00
    outer loop
      vertex -3.753331e+01 2.978911e+01 0.000000e+00
      vertex -3.753331e+01 2.671064e+01 0.000000e+00
      vertex -4.246669e+01 3.263693e+01 0.000000e+00
    endloop
  endfacet
  facet normal 0.000000e+00 0.000000e+00 -1.000000e+00
    outer loop
      vertex -3.753331e+01 2.671064e+01 0.000000e+00
      vertex -4.246644e+01 2.386250e+01 0.000000e+00
      vertex -4.246669e+01 3.263693e+01 0.000000e+00
    endloop
  endfacet
  facet normal 0.000000e+00 0.000000e+00 -1.000000e+00
    outer loop
      vertex -1.253128e+01 3.274980e+01 0.000000e+00
      vertex -3.753331e+01 2.671064e+01 0.000000e+00
      vertex -7.533314e+00 3.500000e+01 0.000000e+00
    endloop
  endfacet
  facet normal 0.000000e+00 0.000000e+00 -1.000000e+00
    outer loop
      vertex -7.533314e+00 3.500000e+01 0.000000e+00
      vertex -3.753331e+01 2.978911e+01 0.000000e+00
      vertex -3.753331e+01 3.500000e+01 0.000000e+00
    endloop
  endfacet
  facet normal 0.000000e+00 0.000000e+00 -1.000000e+00
    outer loop
      vertex -3.753331e+01 2.671064e+01 0.000000e+00
      vertex -3.753331e+01 2.978911e+01 0.000000e+00
      vertex -7.533314e+00 3.500000e+01 0.000000e+00
    endloop
  endfacet
  facet normal 0.000000e+00 0.000000e+00 -1.000000e+00
    outer loop
      vertex -1.253139e+01 2.375000e+01 0.000000e+00
      vertex -3.753331e+01 1.328911e+01 0.000000e+00
      vertex -1.253128e+01 3.274980e+01 0.000000e+00
    endloop
  endfacet
  facet normal 0.000000e+00 0.000000e+00 -1.000000e+00
    outer loop
      vertex -3.753331e+01 1.328911e+01 0.000000e+00
      vertex -3.753331e+01 2.671064e+01 0.000000e+00
      vertex -1.253128e+01 3.274980e+01 0.000000e+00
    endloop
  endfacet
  facet normal 0.000000e+00 0.000000e+00 -1.000000e+00
    outer loop
      vertex -3.753331e+01 1.021064e+01 0.000000e+00
      vertex -4.246644e+01 7.362500e+00 0.000000e+00
      vertex -3.753331e+01 1.328911e+01 0.000000e+00
    endloop
  endfacet
  facet normal 0.000000e+00 0.000000e+00 -1.000000e+00
    outer loop
      vertex -1.253139e+01 2.375000e+01 0.000000e+00
      vertex -7.533314e+00 2.663564e+01 0.000000e+00
      vertex -7.533314e+00 2.150000e+01 0.000000e+00
    endloop
  endfacet
  facet normal 0.000000e+00 0.000000e+00 -1.000000e+00
    outer loop
      vertex -1.253128e+01 1.624980e+01 0.000000e+00
      vertex -7.533314e+00 1.850000e+01 0.000000e+00
      vertex -7.533314e+00 1.336431e+01 0.000000e+00
    endloop
  endfacet
  facet normal 0.000000e+00 0.000000e+00 -1.000000e+00
    outer loop
      vertex -3.753331e+01 1.021064e+01 0.000000e+00
      vertex -7.533314e+00 2.150000e+01 0.000000e+00
      vertex -7.533314e+00 1.850000e+01 0.000000e+00
    endloop
  endfacet
  facet normal 0.000000e+00 0.000000e+00 -1.000000e+00
    outer loop
      vertex -3.753331e+01 1.021064e+01 0.000000e+00
      vertex -1.253139e+01 2.375000e+01 0.000000e+00
      vertex -7.533314e+00 2.150000e+01 0.000000e+00
    endloop
  endfacet
  facet normal 0.000000e+00 0.000000e+00 -1.000000e+00
    outer loop
      vertex -1.253139e+01 7.250000e+00 0.000000e+00
      vertex -7.533314e+00 1.013564e+01 0.000000e+00
      vertex -7.533314e+00 5.000000e+00 0.000000e+00
    endloop
  endfacet
  facet normal 0.000000e+00 0.000000e+00 -1.000000e+00
    outer loop
      vertex -1.253128e+01 3.274980e+01 0.000000e+00
      vertex -7.533314e+00 3.500000e+01 0.000000e+00
      vertex -7.533314e+00 2.986431e+01 0.000000e+00
    endloop
  endfacet
  facet normal 0.000000e+00 0.000000e+00 -1.000000e+00
    outer loop
      vertex -3.753331e+01 1.021064e+01 0.000000e+00
      vertex -7.533314e+00 1.850000e+01 0.000000e+00
      vertex -1.253128e+01 1.624980e+01 0.000000e+00
    endloop
  endfacet
  facet normal 0.000000e+00 0.000000e+00 -1.000000e+00
    outer loop
      vertex -3.753331e+01 1.021064e+01 0.000000e+00
      vertex -1.253128e+01 1.624980e+01 0.000000e+00
      vertex -1.253139e+01 7.250000e+00 0.000000e+00
    endloop
  endfacet
  facet normal 0.000000e+00 0.000000e+00 -1.000000e+00
    outer loop
      vertex -3.753331e+01 1.021064e+01 0.000000e+00
      vertex -1.253139e+01 7.250000e+00 0.000000e+00
      vertex -7.533314e+00 5.000000e+00 0.000000e+00
    endloop
  endfacet
  facet normal 0.000000e+00 0.000000e+00 -1.000000e+00
    outer loop
      vertex -3.753331e+01 1.021064e+01 0.000000e+00
      vertex -7.533314e+00 5.000000e+00 0.000000e+00
      vertex -3.753331e+01 5.000000e+00 0.000000e+00
    endloop
  endfacet
  facet normal 4.999388e-01 8.660607e-01 0.000000e+00
    outer loop
      vertex -3.753331e+01 1.328911e+01 7.000000e+00
      vertex -3.753331e+01 1.328911e+01 0.000000e+00
      vertex -4.246669e+01 1.613693e+01 7.000000e+00
    endloop
  endfacet
  facet normal 4.999388e-01 8.660607e-01 0.000000e+00
    outer loop
      vertex -4.246669e+01 1.613693e+01 7.000000e+00
      vertex -3.753331e+01 1.328911e+01 0.000000e+00
      vertex -4.246669e+01 1.613693e+01 0.000000e+00
    endloop
  endfacet
  facet normal 5.000002e-01 -8.660253e-01 0.000000e+00
    outer loop
      vertex -3.753331e+01 1.021064e+01 0.000000e+00
      vertex -3.753331e+01 1.021064e+01 7.000000e+00
      vertex -4.246644e+01 7.362500e+00 7.000000e+00
    endloop
  endfacet
  facet normal 5.000002e-01 -8.660253e-01 0.000000e+00
    outer loop
      vertex -4.246644e+01 7.362500e+00 0.000000e+00
      vertex -3.753331e+01 1.021064e+01 0.000000e+00
      vertex -4.246644e+01 7.362500e+00 7.000000e+00
    endloop
  endfacet
  facet normal 0.000000e+00 0.000000e+00 1.000000e+00
    outer loop
      vertex -3.753331e+01 1.328911e+01 7.000000e+00
      vertex -4.246669e+01 1.613693e+01 7.000000e+00
      vertex -4.246644e+01 7.362500e+00 7.000000e+00
    endloop
  endfacet
  facet normal 0.000000e+00 0.000000e+00 1.000000e+00
    outer loop
      vertex -7.533314e+00 5.000000e+00 7.000000e+00
      vertex -3.753331e+01 1.328911e+01 7.000000e+00
      vertex -3.753331e+01 1.021064e+01 7.000000e+00
    endloop
  endfacet
  facet normal 0.000000e+00 0.000000e+00 1.000000e+00
    outer loop
      vertex -3.753331e+01 1.021064e+01 7.000000e+00
      vertex -3.753331e+01 1.328911e+01 7.000000e+00
      vertex -4.246644e+01 7.362500e+00 7.000000e+00
    endloop
  endfacet
  facet normal 0.000000e+00 0.000000e+00 1.000000e+00
    outer loop
      vertex -7.533314e+00 5.000000e+00 7.000000e+00
      vertex -3.753331e+01 1.021064e+01 7.000000e+00
      vertex -3.753331e+01 5.000000e+00 7.000000e+00
    endloop
  endfacet
  facet normal 0.000000e+00 0.000000e+00 1.000000e+00
    outer loop
      vertex -1.253139e+01 7.250000e+00 7.000000e+00
      vertex -1.253128e+01 1.624980e+01 7.000000e+00
      vertex -3.753331e+01 2.671064e+01 7.000000e+00
    endloop
  endfacet
  facet normal 0.000000e+00 0.000000e+00 1.000000e+00
    outer loop
      vertex -7.533314e+00 1.013564e+01 7.000000e+00
      vertex -1.253139e+01 7.250000e+00 7.000000e+00
      vertex -7.533314e+00 5.000000e+00 7.000000e+00
    endloop
  endfacet
  facet normal 0.000000e+00 0.000000e+00 1.000000e+00
    outer loop
      vertex -3.753331e+01 2.978911e+01 7.000000e+00
      vertex -4.246669e+01 3.263693e+01 7.000000e+00
      vertex -4.246644e+01 2.386250e+01 7.000000e+00
    endloop
  endfacet
  facet normal 0.000000e+00 0.000000e+00 1.000000e+00
    outer loop
      vertex -7.533314e+00 1.850000e+01 7.000000e+00
      vertex -1.253128e+01 1.624980e+01 7.000000e+00
      vertex -7.533314e+00 1.336431e+01 7.000000e+00
    endloop
  endfacet
  facet normal 0.000000e+00 0.000000e+00 1.000000e+00
    outer loop
      vertex -7.533314e+00 2.663564e+01 7.000000e+00
      vertex -1.253139e+01 2.375000e+01 7.000000e+00
      vertex -7.533314e+00 2.150000e+01 7.000000e+00
    endloop
  endfacet
  facet normal 0.000000e+00 0.000000e+00 1.000000e+00
    outer loop
      vertex -7.533314e+00 3.500000e+01 7.000000e+00
      vertex -1.253128e+01 3.274980e+01 7.000000e+00
      vertex -7.533314e+00 2.986431e+01 7.000000e+00
    endloop
  endfacet
  facet normal 0.000000e+00 0.000000e+00 1.000000e+00
    outer loop
      vertex -3.753331e+01 3.500000e+01 7.000000e+00
      vertex -1.253128e+01 3.274980e+01 7.000000e+00
      vertex -7.533314e+00 3.500000e+01 7.000000e+00
    endloop
  endfacet
  facet normal 0.000000e+00 0.000000e+00 1.000000e+00
    outer loop
      vertex -4.246644e+01 2.386250e+01 7.000000e+00
      vertex -3.753331e+01 2.671064e+01 7.000000e+00
      vertex -3.753331e+01 2.978911e+01 7.000000e+00
    endloop
  endfacet
  facet normal 0.000000e+00 0.000000e+00 1.000000e+00
    outer loop
      vertex -3.753331e+01 3.500000e+01 7.000000e+00
      vertex -3.753331e+01 2.978911e+01 7.000000e+00
      vertex -1.253128e+01 3.274980e+01 7.000000e+00
    endloop
  endfacet
  facet normal 0.000000e+00 0.000000e+00 1.000000e+00
    outer loop
      vertex -3.753331e+01 2.978911e+01 7.000000e+00
      vertex -3.753331e+01 2.671064e+01 7.000000e+00
      vertex -1.253128e+01 3.274980e+01 7.000000e+00
    endloop
  endfacet
  facet normal 0.000000e+00 0.000000e+00 1.000000e+00
    outer loop
      vertex -3.753331e+01 2.671064e+01 7.000000e+00
      vertex -7.533314e+00 2.150000e+01 7.000000e+00
      vertex -1.253139e+01 2.375000e+01 7.000000e+00
    endloop
  endfacet
  facet normal 0.000000e+00 0.000000e+00 1.000000e+00
    outer loop
      vertex -3.753331e+01 2.671064e+01 7.000000e+00
      vertex -7.533314e+00 1.850000e+01 7.000000e+00
      vertex -7.533314e+00 2.150000e+01 7.000000e+00
    endloop
  endfacet
  facet normal 0.000000e+00 0.000000e+00 1.000000e+00
    outer loop
      vertex -3.753331e+01 2.671064e+01 7.000000e+00
      vertex -1.253128e+01 1.624980e+01 7.000000e+00
      vertex -7.533314e+00 1.850000e+01 7.000000e+00
    endloop
  endfacet
  facet normal 0.000000e+00 0.000000e+00 1.000000e+00
    outer loop
      vertex -1.253139e+01 2.375000e+01 7.000000e+00
      vertex -1.253128e+01 3.274980e+01 7.000000e+00
      vertex -3.753331e+01 2.671064e+01 7.000000e+00
    endloop
  endfacet
  facet normal 0.000000e+00 0.000000e+00 1.000000e+00
    outer loop
      vertex -1.253139e+01 7.250000e+00 7.000000e+00
      vertex -3.753331e+01 1.328911e+01 7.000000e+00
      vertex -7.533314e+00 5.000000e+00 7.000000e+00
    endloop
  endfacet
  facet normal 0.000000e+00 0.000000e+00 1.000000e+00
    outer loop
      vertex -3.753331e+01 2.671064e+01 7.000000e+00
      vertex -3.753331e+01 1.328911e+01 7.000000e+00
      vertex -1.253139e+01 7.250000e+00 7.000000e+00
    endloop
  endfacet
  facet normal -1.000000e+00 -0.000000e+00 -0.000000e+00
    outer loop
      vertex -3.753331e+01 5.000000e+00 0.000000e+00
      vertex -3.753331e+01 5.000000e+00 7.000000e+00
      vertex -3.753331e+01 1.021064e+01 0.000000e+00
    endloop
  endfacet
  facet normal -1.000000e+00 0.000000e+00 0.000000e+00
    outer loop
      vertex -3.753331e+01 1.021064e+01 0.000000e+00
      vertex -3.753331e+01 5.000000e+00 7.000000e+00
      vertex -3.753331e+01 1.021064e+01 7.000000e+00
    endloop
  endfacet
  facet normal 0.000000e+00 -1.000000e+00 0.000000e+00
    outer loop
      vertex -3.753331e+01 5.000000e+00 7.000000e+00
      vertex -3.753331e+01 5.000000e+00 0.000000e+00
      vertex -7.533314e+00 5.000000e+00 0.000000e+00
    endloop
  endfacet
  facet normal 0.000000e+00 -1.000000e+00 0.000000e+00
    outer loop
      vertex -7.533314e+00 5.000000e+00 7.000000e+00
      vertex -3.753331e+01 5.000000e+00 7.000000e+00
      vertex -7.533314e+00 5.000000e+00 0.000000e+00
    endloop
  endfacet
  facet normal 1.000000e+00 0.000000e+00 0.000000e+00
    outer loop
      vertex -7.533314e+00 5.000000e+00 7.000000e+00
      vertex -7.533314e+00 5.000000e+00 0.000000e+00
      vertex -7.533314e+00 1.013564e+01 0.000000e+00
    endloop
  endfacet
  facet normal 1.000000e+00 0.000000e+00 0.000000e+00
    outer loop
      vertex -7.533314e+00 1.013564e+01 7.000000e+00
      vertex -7.533314e+00 5.000000e+00 7.000000e+00
      vertex -7.533314e+00 1.013564e+01 0.000000e+00
    endloop
  endfacet
  facet normal -5.000002e-01 8.660253e-01 0.000000e+00
    outer loop
      vertex -1.253139e+01 7.250000e+00 0.000000e+00
      vertex -1.253139e+01 7.250000e+00 7.000000e+00
      vertex -7.533314e+00 1.013564e+01 0.000000e+00
    endloop
  endfacet
  facet normal -5.000002e-01 8.660253e-01 0.000000e+00
    outer loop
      vertex -7.533314e+00 1.013564e+01 0.000000e+00
      vertex -1.253139e+01 7.250000e+00 7.000000e+00
      vertex -7.533314e+00 1.013564e+01 7.000000e+00
    endloop
  endfacet
  facet normal 1.000000e+00 -1.300000e-05 0.000000e+00
    outer loop
      vertex -1.253139e+01 7.250000e+00 7.000000e+00
      vertex -1.253139e+01 7.250000e+00 0.000000e+00
      vertex -1.253128e+01 1.624980e+01 0.000000e+00
    endloop
  endfacet
  facet normal 1.000000e+00 -1.300000e-05 0.000000e+00
    outer loop
      vertex -1.253128e+01 1.624980e+01 7.000000e+00
      vertex -1.253139e+01 7.250000e+00 7.000000e+00
      vertex -1.253128e+01 1.624980e+01 0.000000e+00
    endloop
  endfacet
  facet normal -4.999889e-01 -8.660318e-01 0.000000e+00
    outer loop
      vertex -1.253128e+01 1.624980e+01 7.000000e+00
      vertex -1.253128e+01 1.624980e+01 0.000000e+00
      vertex -7.533314e+00 1.336431e+01 0.000000e+00
    endloop
  endfacet
  facet normal -4.999889e-01 -8.660318e-01 0.000000e+00
    outer loop
      vertex -7.533314e+00 1.336431e+01 7.000000e+00
      vertex -1.253128e+01 1.624980e+01 7.000000e+00
      vertex -7.533314e+00 1.336431e+01 0.000000e+00
    endloop
  endfacet
  facet normal 1.000000e+00 0.000000e+00 0.000000e+00
    outer loop
      vertex -7.533314e+00 1.336431e+01 7.000000e+00
      vertex -7.533314e+00 1.336431e+01 0.000000e+00
      vertex -7.533314e+00 1.850000e+01 0.000000e+00
    endloop
  endfacet
  facet normal 1.000000e+00 0.000000e+00 0.000000e+00
    outer loop
      vertex -7.533314e+00 1.850000e+01 7.000000e+00
      vertex -7.533314e+00 1.336431e+01 7.000000e+00
      vertex -7.533314e+00 1.850000e+01 0.000000e+00
    endloop
  endfacet
  facet normal 1.000000e+00 0.000000e+00 0.000000e+00
    outer loop
      vertex -7.533314e+00 1.850000e+01 7.000000e+00
      vertex -7.533314e+00 1.850000e+01 0.000000e+00
      vertex -7.533314e+00 2.150000e+01 0.000000e+00
    endloop
  endfacet
  facet normal 1.000000e+00 0.000000e+00 0.000000e+00
    outer loop
      vertex -7.533314e+00 2.150000e+01 7.000000e+00
      vertex -7.533314e+00 1.850000e+01 7.000000e+00
      vertex -7.533314e+00 2.150000e+01 0.000000e+00
    endloop
  endfacet
  facet normal 1.000000e+00 0.000000e+00 0.000000e+00
    outer loop
      vertex -7.533314e+00 2.150000e+01 7.000000e+00
      vertex -7.533314e+00 2.150000e+01 0.000000e+00
      vertex -7.533314e+00 2.663564e+01 0.000000e+00
    endloop
  endfacet
  facet normal 1.000000e+00 0.000000e+00 0.000000e+00
    outer loop
      vertex -7.533314e+00 2.663564e+01 7.000000e+00
      vertex -7.533314e+00 2.150000e+01 7.000000e+00
      vertex -7.533314e+00 2.663564e+01 0.000000e+00
    endloop
  endfacet
  facet normal -5.000002e-01 8.660253e-01 0.000000e+00
    outer loop
      vertex -1.253139e+01 2.375000e+01 0.000000e+00
      vertex -1.253139e+01 2.375000e+01 7.000000e+00
      vertex -7.533314e+00 2.663564e+01 0.000000e+00
    endloop
  endfacet
  facet normal -5.000002e-01 8.660253e-01 0.000000e+00
    outer loop
      vertex -7.533314e+00 2.663564e+01 0.000000e+00
      vertex -1.253139e+01 2.375000e+01 7.000000e+00
      vertex -7.533314e+00 2.663564e+01 7.000000e+00
    endloop
  endfacet
  facet normal 1.000000e+00 -1.300000e-05 0.000000e+00
    outer loop
      vertex -1.253139e+01 2.375000e+01 7.000000e+00
      vertex -1.253139e+01 2.375000e+01 0.000000e+00
      vertex -1.253128e+01 3.274980e+01 0.000000e+00
    endloop
  endfacet
  facet normal 1.000000e+00 -1.300000e-05 0.000000e+00
    outer loop
      vertex -1.253128e+01 3.274980e+01 7.000000e+00
      vertex -1.253139e+01 2.375000e+01 7.000000e+00
      vertex -1.253128e+01 3.274980e+01 0.000000e+00
    endloop
  endfacet
  facet normal -4.999889e-01 -8.660318e-01 0.000000e+00
    outer loop
      vertex -1.253128e+01 3.274980e+01 7.000000e+00
      vertex -1.253128e+01 3.274980e+01 0.000000e+00
      vertex -7.533314e+00 2.986431e+01 0.000000e+00
    endloop
  endfacet
  facet normal -4.999889e-01 -8.660318e-01 0.000000e+00
    outer loop
      vertex -7.533314e+00 2.986431e+01 7.000000e+00
      vertex -1.253128e+01 3.274980e+01 7.000000e+00
      vertex -7.533314e+00 2.986431e+01 0.000000e+00
    endloop
  endfacet
  facet normal 1.000000e+00 0.000000e+00 0.000000e+00
    outer loop
      vertex -7.533314e+00 2.986431e+01 7.000000e+00
      vertex -7.533314e+00 2.986431e+01 0.000000e+00
      vertex -7.533314e+00 3.500000e+01 0.000000e+00
    endloop
  endfacet
  facet normal 1.000000e+00 0.000000e+00 0.000000e+00
    outer loop
      vertex -7.533314e+00 3.500000e+01 7.000000e+00
      vertex -7.533314e+00 2.986431e+01 7.000000e+00
      vertex -7.533314e+00 3.500000e+01 0.000000e+00
    endloop
  endfacet
  facet normal 0.000000e+00 1.000000e+00 0.000000e+00
    outer loop
      vertex -3.753331e+01 3.500000e+01 0.000000e+00
      vertex -3.753331e+01 3.500000e+01 7.000000e+00
      vertex -7.533314e+00 3.500000e+01 0.000000e+00
    endloop
  endfacet
  facet normal 0.000000e+00 1.000000e+00 0.000000e+00
    outer loop
      vertex -7.533314e+00 3.500000e+01 0.000000e+00
      vertex -3.753331e+01 3.500000e+01 7.000000e+00
      vertex -7.533314e+00 3.500000e+01 7.000000e+00
    endloop
  endfacet
  facet normal -1.000000e+00 -0.000000e+00 -0.000000e+00
    outer loop
      vertex -3.753331e+01 2.978911e+01 0.000000e+00
      vertex -3.753331e+01 2.978911e+01 7.000000e+00
      vertex -3.753331e+01 3.500000e+01 0.000000e+00
    endloop
  endfacet
  facet normal -1.000000e+00 0.000000e+00 0.000000e+00
    outer loop
      vertex -3.753331e+01 3.500000e+01 0.000000e+00
      vertex -3.753331e+01 2.978911e+01 7.000000e+00
      vertex -3.753331e+01 3.500000e+01 7.000000e+00
    endloop
  endfacet
  facet normal 4.999388e-01 8.660607e-01 0.000000e+00
    outer loop
      vertex -3.753331e+01 2.978911e+01 7.000000e+00
      vertex -3.753331e+01 2.978911e+01 0.000000e+00
      vertex -4.246669e+01 3.263693e+01 7.000000e+00
    endloop
  endfacet
  facet normal 4.999388e-01 8.660607e-01 0.000000e+00
    outer loop
      vertex -4.246669e+01 3.263693e+01 7.000000e+00
      vertex -3.753331e+01 2.978911e+01 0.000000e+00
      vertex -4.246669e+01 3.263693e+01 0.000000e+00
    endloop
  endfacet
  facet normal -1.000000e+00 -2.800000e-05 0.000000e+00
    outer loop
      vertex -4.246644e+01 2.386250e+01 7.000000e+00
      vertex -4.246669e+01 3.263693e+01 7.000000e+00
      vertex -4.246644e+01 2.386250e+01 0.000000e+00
    endloop
  endfacet
  facet normal -1.000000e+00 -2.800000e-05 0.000000e+00
    outer loop
      vertex -4.246644e+01 2.386250e+01 0.000000e+00
      vertex -4.246669e+01 3.263693e+01 7.000000e+00
      vertex -4.246669e+01 3.263693e+01 0.000000e+00
    endloop
  endfacet
  facet normal 5.000002e-01 -8.660253e-01 0.000000e+00
    outer loop
      vertex -3.753331e+01 2.671064e+01 0.000000e+00
      vertex -3.753331e+01 2.671064e+01 7.000000e+00
      vertex -4.246644e+01 2.386250e+01 7.000000e+00
    endloop
  endfacet
  facet normal 5.000002e-01 -8.660253e-01 0.000000e+00
    outer loop
      vertex -4.246644e+01 2.386250e+01 0.000000e+00
      vertex -3.753331e+01 2.671064e+01 0.000000e+00
      vertex -4.246644e+01 2.386250e+01 7.000000e+00
    endloop
  endfacet
  facet normal -1.000000e+00 -0.000000e+00 -0.000000e+00
    outer loop
      vertex -3.753331e+01 1.328911e+01 0.000000e+00
      vertex -3.753331e+01 1.328911e+01 7.000000e+00
      vertex -3.753331e+01 2.671064e+01 0.000000e+00
    endloop
  endfacet
  facet normal -1.000000e+00 0.000000e+00 0.000000e+00
    outer loop
      vertex -3.753331e+01 2.671064e+01 0.000000e+00
      vertex -3.753331e+01 1.328911e+01 7.000000e+00
      vertex -3.753331e+01 2.671064e+01 7.000000e+00
    endloop
  endfacet
  facet normal -1.000000e+00 -2.800000e-05 0.000000e+00
    outer loop
      vertex 7.598514e+00 7.475000e+00 7.000000e+00
      vertex 7.598272e+00 1.602542e+01 7.000000e+00
      vertex 7.598514e+00 7.475000e+00 0.000000e+00
    endloop
  endfacet
  facet normal -1.000000e+00 -2.800000e-05 0.000000e+00
    outer loop
      vertex 7.598514e+00 7.475000e+00 0.000000e+00
      vertex 7.598272e+00 1.602542e+01 7.000000e+00
      vertex 7.598272e+00 1.602542e+01 0.000000e+00
    endloop
  endfacet
  facet normal 0.000000e+00 0.000000e+00 -1.000000e+00
    outer loop
      vertex 7.598272e+00 1.602542e+01 0.000000e+00
      vertex 1.246669e+01 1.321445e+01 0.000000e+00
      vertex 7.598514e+00 7.475000e+00 0.000000e+00
    endloop
  endfacet
  facet normal 0.000000e+00 0.000000e+00 -1.000000e+00
    outer loop
      vertex 3.746861e+01 2.375000e+01 0.000000e+00
      vertex 1.246669e+01 1.028564e+01 0.000000e+00
      vertex 1.246669e+01 1.321445e+01 0.000000e+00
    endloop
  endfacet
  facet normal 0.000000e+00 0.000000e+00 -1.000000e+00
    outer loop
      vertex 1.246669e+01 2.971445e+01 0.000000e+00
      vertex 1.246669e+01 2.678564e+01 0.000000e+00
      vertex 7.598272e+00 3.252542e+01 0.000000e+00
    endloop
  endfacet
  facet normal 0.000000e+00 0.000000e+00 -1.000000e+00
    outer loop
      vertex 1.246669e+01 2.678564e+01 0.000000e+00
      vertex 7.598514e+00 2.397500e+01 0.000000e+00
      vertex 7.598272e+00 3.252542e+01 0.000000e+00
    endloop
  endfacet
  facet normal 0.000000e+00 0.000000e+00 -1.000000e+00
    outer loop
      vertex 3.746872e+01 3.274980e+01 0.000000e+00
      vertex 1.246669e+01 2.678564e+01 0.000000e+00
      vertex 4.246669e+01 3.500000e+01 0.000000e+00
    endloop
  endfacet
  facet normal 0.000000e+00 0.000000e+00 -1.000000e+00
    outer loop
      vertex 4.246669e+01 3.500000e+01 0.000000e+00
      vertex 1.246669e+01 2.971445e+01 0.000000e+00
      vertex 1.246669e+01 3.500000e+01 0.000000e+00
    endloop
  endfacet
  facet normal 0.000000e+00 0.000000e+00 -1.000000e+00
    outer loop
      vertex 1.246669e+01 2.678564e+01 0.000000e+00
      vertex 1.246669e+01 2.971445e+01 0.000000e+00
      vertex 4.246669e+01 3.500000e+01 0.000000e+00
    endloop
  endfacet
  facet normal 0.000000e+00 0.000000e+00 -1.000000e+00
    outer loop
      vertex 3.746861e+01 2.375000e+01 0.000000e+00
      vertex 1.246669e+01 1.321445e+01 0.000000e+00
      vertex 3.746872e+01 3.274980e+01 0.000000e+00
    endloop
  endfacet
  facet normal 0.000000e+00 0.000000e+00 -1.000000e+00
    outer loop
      vertex 1.246669e+01 1.321445e+01 0.000000e+00
      vertex 1.246669e+01 2.678564e+01 0.000000e+00
      vertex 3.746872e+01 3.274980e+01 0.000000e+00
    endloop
  endfacet
  facet normal 0.000000e+00 0.000000e+00 -1.000000e+00
    outer loop
      vertex 1.246669e+01 1.028564e+01 0.000000e+00
      vertex 7.598514e+00 7.475000e+00 0.000000e+00
      vertex 1.246669e+01 1.321445e+01 0.000000e+00
    endloop
  endfacet
  facet normal 0.000000e+00 0.000000e+00 -1.000000e+00
    outer loop
      vertex 3.746861e+01 2.375000e+01 0.000000e+00
      vertex 4.246669e+01 2.663564e+01 0.000000e+00
      vertex 4.246669e+01 2.150000e+01 0.000000e+00
    endloop
  endfacet
  facet normal 0.000000e+00 0.000000e+00 -1.000000e+00
    outer loop
      vertex 3.746872e+01 1.624980e+01 0.000000e+00
      vertex 4.246669e+01 1.850000e+01 0.000000e+00
      vertex 4.246669e+01 1.336431e+01 0.000000e+00
    endloop
  endfacet
  facet normal 0.000000e+00 0.000000e+00 -1.000000e+00
    outer loop
      vertex 1.246669e+01 1.028564e+01 0.000000e+00
      vertex 4.246669e+01 2.150000e+01 0.000000e+00
      vertex 4.246669e+01 1.850000e+01 0.000000e+00
    endloop
  endfacet
  facet normal 0.000000e+00 0.000000e+00 -1.000000e+00
    outer loop
      vertex 1.246669e+01 1.028564e+01 0.000000e+00
      vertex 3.746861e+01 2.375000e+01 0.000000e+00
      vertex 4.246669e+01 2.150000e+01 0.000000e+00
    endloop
  endfacet
  facet normal 0.000000e+00 0.000000e+00 -1.000000e+00
    outer loop
      vertex 3.746861e+01 7.250000e+00 0.000000e+00
      vertex 4.246669e+01 1.013564e+01 0.000000e+00
      vertex 4.246669e+01 5.000000e+00 0.000000e+00
    endloop
  endfacet
  facet normal 0.000000e+00 0.000000e+00 -1.000000e+00
    outer loop
      vertex 3.746872e+01 3.274980e+01 0.000000e+00
      vertex 4.246669e+01 3.500000e+01 0.000000e+00
      vertex 4.246669e+01 2.986431e+01 0.000000e+00
    endloop
  endfacet
  facet normal 0.000000e+00 0.000000e+00 -1.000000e+00
    outer loop
      vertex 1.246669e+01 1.028564e+01 0.000000e+00
      vertex 4.246669e+01 1.850000e+01 0.000000e+00
      vertex 3.746872e+01 1.624980e+01 0.000000e+00
    endloop
  endfacet
  facet normal 0.000000e+00 0.000000e+00 -1.000000e+00
    outer loop
      vertex 1.246669e+01 1.028564e+01 0.000000e+00
      vertex 3.746872e+01 1.624980e+01 0.000000e+00
      vertex 3.746861e+01 7.250000e+00 0.000000e+00
    endloop
  endfacet
  facet normal 0.000000e+00 0.000000e+00 -1.000000e+00
    outer loop
      vertex 1.246669e+01 1.028564e+01 0.000000e+00
      vertex 3.746861e+01 7.250000e+00 0.000000e+00
      vertex 4.246669e+01 5.000000e+00 0.000000e+00
    endloop
  endfacet
  facet normal 0.000000e+00 0.000000e+00 -1.000000e+00
    outer loop
      vertex 1.246669e+01 1.028564e+01 0.000000e+00
      vertex 4.246669e+01 5.000000e+00 0.000000e+00
      vertex 1.246669e+01 5.000000e+00 0.000000e+00
    endloop
  endfacet
  facet normal 5.000243e-01 8.660114e-01 0.000000e+00
    outer loop
      vertex 1.246669e+01 1.321445e+01 7.000000e+00
      vertex 1.246669e+01 1.321445e+01 0.000000e+00
      vertex 7.598272e+00 1.602542e+01 7.000000e+00
    endloop
  endfacet
  facet normal 5.000243e-01 8.660114e-01 0.000000e+00
    outer loop
      vertex 7.598272e+00 1.602542e+01 7.000000e+00
      vertex 1.246669e+01 1.321445e+01 0.000000e+00
      vertex 7.598272e+00 1.602542e+01 0.000000e+00
    endloop
  endfacet
  facet normal 5.000002e-01 -8.660253e-01 0.000000e+00
    outer loop
      vertex 1.246669e+01 1.028564e+01 0.000000e+00
      vertex 1.246669e+01 1.028564e+01 7.000000e+00
      vertex 7.598514e+00 7.475000e+00 7.000000e+00
    endloop
  endfacet
  facet normal 5.000002e-01 -8.660253e-01 0.000000e+00
    outer loop
      vertex 7.598514e+00 7.475000e+00 0.000000e+00
      vertex 1.246669e+01 1.028564e+01 0.000000e+00
      vertex 7.598514e+00 7.475000e+00 7.000000e+00
    endloop
  endfacet
  facet normal 0.000000e+00 0.000000e+00 1.000000e+00
    outer loop
      vertex 1.246669e+01 1.321445e+01 7.000000e+00
      vertex 7.598272e+00 1.602542e+01 7.000000e+00
      vertex 7.598514e+00 7.475000e+00 7.000000e+00
    endloop
  endfacet
  facet normal 0.000000e+00 0.000000e+00 1.000000e+00
    outer loop
      vertex 4.246669e+01 5.000000e+00 7.000000e+00
      vertex 1.246669e+01 1.321445e+01 7.000000e+00
      vertex 1.246669e+01 1.028564e+01 7.000000e+00
    endloop
  endfacet
  facet normal 0.000000e+00 0.000000e+00 1.000000e+00
    outer loop
      vertex 1.246669e+01 1.028564e+01 7.000000e+00
      vertex 1.246669e+01 1.321445e+01 7.000000e+00
      vertex 7.598514e+00 7.475000e+00 7.000000e+00
    endloop
  endfacet
  facet normal 0.000000e+00 0.000000e+00 1.000000e+00
    outer loop
      vertex 4.246669e+01 5.000000e+00 7.000000e+00
      vertex 1.246669e+01 1.028564e+01 7.000000e+00
      vertex 1.246669e+01 5.000000e+00 7.000000e+00
    endloop
  endfacet
  facet normal 0.000000e+00 0.000000e+00 1.000000e+00
    outer loop
      vertex 3.746861e+01 7.250000e+00 7.000000e+00
      vertex 3.746872e+01 1.624980e+01 7.000000e+00
      vertex 1.246669e+01 2.678564e+01 7.000000e+00
    endloop
  endfacet
  facet normal 0.000000e+00 0.000000e+00 1.000000e+00
    outer loop
      vertex 4.246669e+01 1.013564e+01 7.000000e+00
      vertex 3.746861e+01 7.250000e+00 7.000000e+00
      vertex 4.246669e+01 5.000000e+00 7.000000e+00
    endloop
  endfacet
  facet normal 0.000000e+00 0.000000e+00 1.000000e+00
    outer loop
      vertex 1.246669e+01 2.971445e+01 7.000000e+00
      vertex 7.598272e+00 3.252542e+01 7.000000e+00
      vertex 7.598514e+00 2.397500e+01 7.000000e+00
    endloop
  endfacet
  facet normal 0.000000e+00 0.000000e+00 1.000000e+00
    outer loop
      vertex 4.246669e+01 1.850000e+01 7.000000e+00
      vertex 3.746872e+01 1.624980e+01 7.000000e+00
      vertex 4.246669e+01 1.336431e+01 7.000000e+00
    endloop
  endfacet
  facet normal 0.000000e+00 0.000000e+00 1.000000e+00
    outer loop
      vertex 4.246669e+01 2.663564e+01 7.000000e+00
      vertex 3.746861e+01 2.375000e+01 7.000000e+00
      vertex 4.246669e+01 2.150000e+01 7.000000e+00
    endloop
  endfacet
  facet normal 0.000000e+00 0.000000e+00 1.000000e+00
    outer loop
      vertex 4.246669e+01 3.500000e+01 7.000000e+00
      vertex 3.746872e+01 3.274980e+01 7.000000e+00
      vertex 4.246669e+01 2.986431e+01 7.000000e+00
    endloop
  endfacet
  facet normal 0.000000e+00 0.000000e+00 1.000000e+00
    outer loop
      vertex 1.246669e+01 3.500000e+01 7.000000e+00
      vertex 3.746872e+01 3.274980e+01 7.000000e+00
      vertex 4.246669e+01 3.500000e+01 7.000000e+00
    endloop
  endfacet
  facet normal 0.000000e+00 0.000000e+00 1.000000e+00
    outer loop
      vertex 7.598514e+00 2.397500e+01 7.000000e+00
      vertex 1.246669e+01 2.678564e+01 7.000000e+00
      vertex 1.246669e+01 2.971445e+01 7.000000e+00
    endloop
  endfacet
  facet normal 0.000000e+00 0.000000e+00 1.000000e+00
    outer loop
      vertex 1.246669e+01 3.500000e+01 7.000000e+00
      vertex 1.246669e+01 2.971445e+01 7.000000e+00
      vertex 3.746872e+01 3.274980e+01 7.000000e+00
    endloop
  endfacet
  facet normal 0.000000e+00 0.000000e+00 1.000000e+00
    outer loop
      vertex 1.246669e+01 2.971445e+01 7.000000e+00
      vertex 1.246669e+01 2.678564e+01 7.000000e+00
      vertex 3.746872e+01 3.274980e+01 7.000000e+00
    endloop
  endfacet
  facet normal 0.000000e+00 0.000000e+00 1.000000e+00
    outer loop
      vertex 1.246669e+01 2.678564e+01 7.000000e+00
      vertex 4.246669e+01 2.150000e+01 7.000000e+00
      vertex 3.746861e+01 2.375000e+01 7.000000e+00
    endloop
  endfacet
  facet normal 0.000000e+00 0.000000e+00 1.000000e+00
    outer loop
      vertex 1.246669e+01 2.678564e+01 7.000000e+00
      vertex 4.246669e+01 1.850000e+01 7.000000e+00
      vertex 4.246669e+01 2.150000e+01 7.000000e+00
    endloop
  endfacet
  facet normal 0.000000e+00 0.000000e+00 1.000000e+00
    outer loop
      vertex 1.246669e+01 2.678564e+01 7.000000e+00
      vertex 3.746872e+01 1.624980e+01 7.000000e+00
      vertex 4.246669e+01 1.850000e+01 7.000000e+00
    endloop
  endfacet
  facet normal 0.000000e+00 0.000000e+00 1.000000e+00
    outer loop
      vertex 3.746861e+01 2.375000e+01 7.000000e+00
      vertex 3.746872e+01 3.274980e+01 7.000000e+00
      vertex 1.246669e+01 2.678564e+01 7.000000e+00
    endloop
  endfacet
  facet normal 0.000000e+00 0.000000e+00 1.000000e+00
    outer loop
      vertex 3.746861e+01 7.250000e+00 7.000000e+00
      vertex 1.246669e+01 1.321445e+01 7.000000e+00
      vertex 4.246669e+01 5.000000e+00 7.000000e+00
    endloop
  endfacet
  facet normal 0.000000e+00 0.000000e+00 1.000000e+00
    outer loop
      vertex 1.246669e+01 2.678564e+01 7.000000e+00
      vertex 1.246669e+01 1.321445e+01 7.000000e+00
      vertex 3.746861e+01 7.250000e+00 7.000000e+00
    endloop
  endfacet
  facet normal -1.000000e+00 -0.000000e+00 -0.000000e+00
    outer loop
      vertex 1.246669e+01 5.000000e+00 0.000000e+00
      vertex 1.246669e+01 5.000000e+00 7.000000e+00
      vertex 1.246669e+01 1.028564e+01 0.000000e+00
    endloop
  endfacet
  facet normal -1.000000e+00 0.000000e+00 0.000000e+00
    outer loop
      vertex 1.246669e+01 1.028564e+01 0.000000e+00
      vertex 1.246669e+01 5.000000e+00 7.000000e+00
      vertex 1.246669e+01 1.028564e+01 7.000000e+00
    endloop
  endfacet
  facet normal 0.000000e+00 -1.000000e+00 0.000000e+00
    outer loop
      vertex 1.246669e+01 5.000000e+00 7.000000e+00
      vertex 1.246669e+01 5.000000e+00 0.000000e+00
      vertex 4.246669e+01 5.000000e+00 0.000000e+00
    endloop
  endfacet
  facet normal 0.000000e+00 -1.000000e+00 0.000000e+00
    outer loop
      vertex 4.246669e+01 5.000000e+00 7.000000e+00
      vertex 1.246669e+01 5.000000e+00 7.000000e+00
      vertex 4.246669e+01 5.000000e+00 0.000000e+00
    endloop
  endfacet
  facet normal 1.000000e+00 0.000000e+00 0.000000e+00
    outer loop
      vertex 4.246669e+01 5.000000e+00 7.000000e+00
      vertex 4.246669e+01 5.000000e+00 0.000000e+00
      vertex 4.246669e+01 1.013564e+01 0.000000e+00
    endloop
  endfacet
  facet normal 1.000000e+00 0.000000e+00 0.000000e+00
    outer loop
      vertex 4.246669e+01 1.013564e+01 7.000000e+00
      vertex 4.246669e+01 5.000000e+00 7.000000e+00
      vertex 4.246669e+01 1.013564e+01 0.000000e+00
    endloop
  endfacet
  facet normal -5.000002e-01 8.660253e-01 0.000000e+00
    outer loop
      vertex 3.746861e+01 7.250000e+00 0.000000e+00
      vertex 3.746861e+01 7.250000e+00 7.000000e+00
      vertex 4.246669e+01 1.013564e+01 0.000000e+00
    endloop
  endfacet
  facet normal -5.000002e-01 8.660253e-01 0.000000e+00
    outer loop
      vertex 4.246669e+01 1.013564e+01 0.000000e+00
      vertex 3.746861e+01 7.250000e+00 7.000000e+00
      vertex 4.246669e+01 1.013564e+01 7.000000e+00
    endloop
  endfacet
  facet normal 1.000000e+00 -1.300000e-05 0.000000e+00
    outer loop
      vertex 3.746861e+01 7.250000e+00 7.000000e+00
      vertex 3.746861e+01 7.250000e+00 0.000000e+00
      vertex 3.746872e+01 1.624980e+01 0.000000e+00
    endloop
  endfacet
  facet normal 1.000000e+00 -1.300000e-05 0.000000e+00
    outer loop
      vertex 3.746872e+01 1.624980e+01 7.000000e+00
      vertex 3.746861e+01 7.250000e+00 7.000000e+00
      vertex 3.746872e+01 1.624980e+01 0.000000e+00
    endloop
  endfacet
  facet normal -4.999889e-01 -8.660318e-01 0.000000e+00
    outer loop
      vertex 3.746872e+01 1.624980e+01 7.000000e+00
      vertex 3.746872e+01 1.624980e+01 0.000000e+00
      vertex 4.246669e+01 1.336431e+01 0.000000e+00
    endloop
  endfacet
  facet normal -4.999889e-01 -8.660318e-01 0.000000e+00
    outer loop
      vertex 4.246669e+01 1.336431e+01 7.000000e+00
      vertex 3.746872e+01 1.624980e+01 7.000000e+00
      vertex 4.246669e+01 1.336431e+01 0.000000e+00
    endloop
  endfacet
  facet normal 1.000000e+00 0.000000e+00 0.000000e+00
    outer loop
      vertex 4.246669e+01 1.336431e+01 7.000000e+00
      vertex 4.246669e+01 1.336431e+01 0.000000e+00
      vertex 4.246669e+01 1.850000e+01 0.000000e+00
    endloop
  endfacet
  facet normal 1.000000e+00 0.000000e+00 0.000000e+00
    outer loop
      vertex 4.246669e+01 1.850000e+01 7.000000e+00
      vertex 4.246669e+01 1.336431e+01 7.000000e+00
      vertex 4.246669e+01 1.850000e+01 0.000000e+00
    endloop
  endfacet
  facet normal 1.000000e+00 0.000000e+00 0.000000e+00
    outer loop
      vertex 4.246669e+01 1.850000e+01 7.000000e+00
      vertex 4.246669e+01 1.850000e+01 0.000000e+00
      vertex 4.246669e+01 2.150000e+01 0.000000e+00
    endloop
  endfacet
  facet normal 1.000000e+00 0.000000e+00 0.000000e+00
    outer loop
      vertex 4.246669e+01 2.150000e+01 7.000000e+00
      vertex 4.246669e+01 1.850000e+01 7.000000e+00
      vertex 4.246669e+01 2.150000e+01 0.000000e+00
    endloop
  endfacet
  facet normal 1.000000e+00 0.000000e+00 0.000000e+00
    outer loop
      vertex 4.246669e+01 2.150000e+01 7.000000e+00
      vertex 4.246669e+01 2.150000e+01 0.000000e+00
      vertex 4.246669e+01 2.663564e+01 0.000000e+00
    endloop
  endfacet
  facet normal 1.000000e+00 0.000000e+00 0.000000e+00
    outer loop
      vertex 4.246669e+01 2.663564e+01 7.000000e+00
      vertex 4.246669e+01 2.150000e+01 7.000000e+00
      vertex 4.246669e+01 2.663564e+01 0.000000e+00
    endloop
  endfacet
  facet normal -5.000002e-01 8.660253e-01 0.000000e+00
    outer loop
      vertex 3.746861e+01 2.375000e+01 0.000000e+00
      vertex 3.746861e+01 2.375000e+01 7.000000e+00
      vertex 4.246669e+01 2.663564e+01 0.000000e+00
    endloop
  endfacet
  facet normal -5.000002e-01 8.660253e-01 0.000000e+00
    outer loop
      vertex 4.246669e+01 2.663564e+01 0.000000e+00
      vertex 3.746861e+01 2.375000e+01 7.000000e+00
      vertex 4.246669e+01 2.663564e+01 7.000000e+00
    endloop
  endfacet
  facet normal 1.000000e+00 -1.300000e-05 0.000000e+00
    outer loop
      vertex 3.746861e+01 2.375000e+01 7.000000e+00
      vertex 3.746861e+01 2.375000e+01 0.000000e+00
      vertex 3.746872e+01 3.274980e+01 0.000000e+00
    endloop
  endfacet
  facet normal 1.000000e+00 -1.300000e-05 0.000000e+00
    outer loop
      vertex 3.746872e+01 3.274980e+01 7.000000e+00
      vertex 3.746861e+01 2.375000e+01 7.000000e+00
      vertex 3.746872e+01 3.274980e+01 0.000000e+00
    endloop
  endfacet
  facet normal -4.999889e-01 -8.660318e-01 0.000000e+00
    outer loop
      vertex 3.746872e+01 3.274980e+01 7.000000e+00
      vertex 3.746872e+01 3.274980e+01 0.000000e+00
      vertex 4.246669e+01 2.986431e+01 0.000000e+00
    endloop
  endfacet
  facet normal -4.999889e-01 -8.660318e-01 0.000000e+00
    outer loop
      vertex 4.246669e+01 2.986431e+01 7.000000e+00
      vertex 3.746872e+01 3.274980e+01 7.000000e+00
      vertex 4.246669e+01 2.986431e+01 0.000000e+00
    endloop
  endfacet
  facet normal 1.000000e+00 0.000000e+00 0.000000e+00
    outer loop
      vertex 4.246669e+01 2.986431e+01 7.000000e+00
      vertex 4.246669e+01 2.986431e+01 0.000000e+00
      vertex 4.246669e+01 3.500000e+01 0.000000e+00
    endloop
  endfacet
  facet normal 1.000000e+00 0.000000e+00 0.000000e+00
    outer loop
      vertex 4.246669e+01 3.500000e+01 7.000000e+00
      vertex 4.246669e+01 2.986431e+01 7.000000e+00
      vertex 4.246669e+01 3.500000e+01 0.000000e+00
    endloop
  endfacet
  facet normal 0.000000e+00 1.000000e+00 0.000000e+00
    outer loop
      vertex 1.246669e+01 3.500000e+01 0.000000e+00
      vertex 1.246669e+01 3.500000e+01 7.000000e+00
      vertex 4.246669e+01 3.500000e+01 0.000000e+00
    endloop
  endfacet
  facet normal 0.000000e+00 1.000000e+00 0.000000e+00
    outer loop
      vertex 4.246669e+01 3.500000e+01 0.000000e+00
      vertex 1.246669e+01 3.500000e+01 7.000000e+00
      vertex 4.246669e+01 3.500000e+01 7.000000e+00
    endloop
  endfacet
  facet normal -1.000000e+00 -0.000000e+00 -0.000000e+00
    outer loop
      vertex 1.246669e+01 2.971445e+01 0.000000e+00
      vertex 1.246669e+01 2.971445e+01 7.000000e+00
      vertex 1.246669e+01 3.500000e+01 0.000000e+00
    endloop
  endfacet
  facet normal -1.000000e+00 0.000000e+00 0.000000e+00
    outer loop
      vertex 1.246669e+01 3.500000e+01 0.000000e+00
      vertex 1.246669e+01 2.971445e+01 7.000000e+00
      vertex 1.246669e+01 3.500000e+01 7.000000e+00
    endloop
  endfacet
  facet normal 5.000243e-01 8.660114e-01 0.000000e+00
    outer loop
      vertex 1.246669e+01 2.971445e+01 7.000000e+00
      vertex 1.246669e+01 2.971445e+01 0.000000e+00
      vertex 7.598272e+00 3.252542e+01 7.000000e+00
    endloop
  endfacet
  facet normal 5.000243e-01 8.660114e-01 0.000000e+00
    outer loop
      vertex 7.598272e+00 3.252542e+01 7.000000e+00
      vertex 1.246669e+01 2.971445e+01 0.000000e+00
      vertex 7.598272e+00 3.252542e+01 0.000000e+00
    endloop
  endfacet
  facet normal -1.000000e+00 -2.800000e-05 0.000000e+00
    outer loop
      vertex 7.598514e+00 2.397500e+01 7.000000e+00
      vertex 7.598272e+00 3.252542e+01 7.000000e+00
      vertex 7.598514e+00 2.397500e+01 0.000000e+00
    endloop
  endfacet
  facet normal -1.000000e+00 -2.800000e-05 0.000000e+00
    outer loop
      vertex 7.598514e+00 2.397500e+01 0.000000e+00
      vertex 7.598272e+00 3.252542e+01 7.000000e+00
      vertex 7.598272e+00 3.252542e+01 0.000000e+00
    endloop
  endfacet
  facet normal 5.000002e-01 -8.660253e-01 0.000000e+00
    outer loop
      vertex 1.246669e+01 2.678564e+01 0.000000e+00
      vertex 1.246669e+01 2.678564e+01 7.000000e+00
      vertex 7.598514e+00 2.397500e+01 7.000000e+00
    endloop
  endfacet
  facet normal 5.000002e-01 -8.660253e-01 0.000000e+00
    outer loop
      vertex 7.598514e+00 2.397500e+01 0.000000e+00
      vertex 1.246669e+01 2.678564e+01 0.000000e+00
      vertex 7.598514e+00 2.397500e+01 7.000000e+00
    endloop
  endfacet
  facet normal -1.000000e+00 -0.000000e+00 -0.000000e+00
    outer loop
      vertex 1.246669e+01 1.321445e+01 0.000000e+00
      vertex 1.246669e+01 1.321445e+01 7.000000e+00
      vertex 1.246669e+01 2.678564e+01 0.000000e+00
    endloop
  endfacet
  facet normal -1.000000e+00 0.000000e+00 0.000000e+00
    outer loop
      vertex 1.246669e+01 2.678564e+01 0.000000e+00
      vertex 1.246669e+01 1.321445e+01 7.000000e+00
      vertex 1.246669e+01 2.678564e+01 7.000000e+00
    endloop
  endfacet
  facet normal -1.000000e+00 -7.200000e-05 0.000000e+00
    outer loop
      vertex -4.233653e+01 -3.241250e+01 7.000000e+00
      vertex -4.233714e+01 -2.408746e+01 7.000000e+00
      vertex -4.233653e+01 -3.241250e+01 0.000000e+00
    endloop
  endfacet
  facet normal -1.000000e+00 -7.200000e-05 0.000000e+00
    outer loop
      vertex -4.233653e+01 -3.241250e+01 0.000000e+00
      vertex -4.233714e+01 -2.408746e+01 7.000000e+00
      vertex -4.233714e+01 -2.408746e+01 0.000000e+00
    endloop
  endfacet
  facet normal 0.000000e+00 0.000000e+00 -1.000000e+00
    outer loop
      vertex -4.233714e+01 -2.408746e+01 0.000000e+00
      vertex -3.753331e+01 -2.686074e+01 0.000000e+00
      vertex -4.233653e+01 -3.241250e+01 0.000000e+00
    endloop
  endfacet
  facet normal 0.000000e+00 0.000000e+00 -1.000000e+00
    outer loop
      vertex -1.253139e+01 -1.625000e+01 0.000000e+00
      vertex -3.753331e+01 -2.963936e+01 0.000000e+00
      vertex -3.753331e+01 -2.686074e+01 0.000000e+00
    endloop
  endfacet
  facet normal 0.000000e+00 0.000000e+00 -1.000000e+00
    outer loop
      vertex -3.753331e+01 -1.036074e+01 0.000000e+00
      vertex -3.753331e+01 -1.313936e+01 0.000000e+00
      vertex -4.233714e+01 -7.587457e+00 0.000000e+00
    endloop
  endfacet
  facet normal 0.000000e+00 0.000000e+00 -1.000000e+00
    outer loop
      vertex -3.753331e+01 -1.313936e+01 0.000000e+00
      vertex -4.233653e+01 -1.591250e+01 0.000000e+00
      vertex -4.233714e+01 -7.587457e+00 0.000000e+00
    endloop
  endfacet
  facet normal 0.000000e+00 0.000000e+00 -1.000000e+00
    outer loop
      vertex -1.253128e+01 -7.250198e+00 0.000000e+00
      vertex -3.753331e+01 -1.313936e+01 0.000000e+00
      vertex -7.533314e+00 -5.000000e+00 0.000000e+00
    endloop
  endfacet
  facet normal 0.000000e+00 0.000000e+00 -1.000000e+00
    outer loop
      vertex -7.533314e+00 -5.000000e+00 0.000000e+00
      vertex -3.753331e+01 -1.036074e+01 0.000000e+00
      vertex -3.753331e+01 -5.000000e+00 0.000000e+00
    endloop
  endfacet
  facet normal 0.000000e+00 0.000000e+00 -1.000000e+00
    outer loop
      vertex -3.753331e+01 -1.313936e+01 0.000000e+00
      vertex -3.753331e+01 -1.036074e+01 0.000000e+00
      vertex -7.533314e+00 -5.000000e+00 0.000000e+00
    endloop
  endfacet
  facet normal 0.000000e+00 0.000000e+00 -1.000000e+00
    outer loop
      vertex -1.253139e+01 -1.625000e+01 0.000000e+00
      vertex -3.753331e+01 -2.686074e+01 0.000000e+00
      vertex -1.253128e+01 -7.250198e+00 0.000000e+00
    endloop
  endfacet
  facet normal 0.000000e+00 0.000000e+00 -1.000000e+00
    outer loop
      vertex -3.753331e+01 -2.686074e+01 0.000000e+00
      vertex -3.753331e+01 -1.313936e+01 0.000000e+00
      vertex -1.253128e+01 -7.250198e+00 0.000000e+00
    endloop
  endfacet
  facet normal 0.000000e+00 0.000000e+00 -1.000000e+00
    outer loop
      vertex -3.753331e+01 -2.963936e+01 0.000000e+00
      vertex -4.233653e+01 -3.241250e+01 0.000000e+00
      vertex -3.753331e+01 -2.686074e+01 0.000000e+00
    endloop
  endfacet
  facet normal 0.000000e+00 0.000000e+00 -1.000000e+00
    outer loop
      vertex -1.253139e+01 -1.625000e+01 0.000000e+00
      vertex -7.533314e+00 -1.336436e+01 0.000000e+00
      vertex -7.533314e+00 -1.850000e+01 0.000000e+00
    endloop
  endfacet
  facet normal 0.000000e+00 0.000000e+00 -1.000000e+00
    outer loop
      vertex -1.253128e+01 -2.375020e+01 0.000000e+00
      vertex -7.533314e+00 -2.150000e+01 0.000000e+00
      vertex -7.533314e+00 -2.663569e+01 0.000000e+00
    endloop
  endfacet
  facet normal 0.000000e+00 0.000000e+00 -1.000000e+00
    outer loop
      vertex -3.753331e+01 -2.963936e+01 0.000000e+00
      vertex -7.533314e+00 -1.850000e+01 0.000000e+00
      vertex -7.533314e+00 -2.150000e+01 0.000000e+00
    endloop
  endfacet
  facet normal 0.000000e+00 0.000000e+00 -1.000000e+00
    outer loop
      vertex -3.753331e+01 -2.963936e+01 0.000000e+00
      vertex -1.253139e+01 -1.625000e+01 0.000000e+00
      vertex -7.533314e+00 -1.850000e+01 0.000000e+00
    endloop
  endfacet
  facet normal 0.000000e+00 0.000000e+00 -1.000000e+00
    outer loop
      vertex -1.253139e+01 -3.275000e+01 0.000000e+00
      vertex -7.533314e+00 -2.986436e+01 0.000000e+00
      vertex -7.533314e+00 -3.500000e+01 0.000000e+00
    endloop
  endfacet
  facet normal 0.000000e+00 0.000000e+00 -1.000000e+00
    outer loop
      vertex -1.253128e+01 -7.250198e+00 0.000000e+00
      vertex -7.533314e+00 -5.000000e+00 0.000000e+00
      vertex -7.533314e+00 -1.013569e+01 0.000000e+00
    endloop
  endfacet
  facet normal 0.000000e+00 0.000000e+00 -1.000000e+00
    outer loop
      vertex -3.753331e+01 -2.963936e+01 0.000000e+00
      vertex -7.533314e+00 -2.150000e+01 0.000000e+00
      vertex -1.253128e+01 -2.375020e+01 0.000000e+00
    endloop
  endfacet
  facet normal 0.000000e+00 0.000000e+00 -1.000000e+00
    outer loop
      vertex -3.753331e+01 -2.963936e+01 0.000000e+00
      vertex -1.253128e+01 -2.375020e+01 0.000000e+00
      vertex -1.253139e+01 -3.275000e+01 0.000000e+00
    endloop
  endfacet
  facet normal 0.000000e+00 0.000000e+00 -1.000000e+00
    outer loop
      vertex -3.753331e+01 -2.963936e+01 0.000000e+00
      vertex -1.253139e+01 -3.275000e+01 0.000000e+00
      vertex -7.533314e+00 -3.500000e+01 0.000000e+00
    endloop
  endfacet
  facet normal 0.000000e+00 0.000000e+00 -1.000000e+00
    outer loop
      vertex -3.753331e+01 -2.963936e+01 0.000000e+00
      vertex -7.533314e+00 -3.500000e+01 0.000000e+00
      vertex -3.753331e+01 -3.500000e+01 0.000000e+00
    endloop
  endfacet
  facet normal 4.999730e-01 8.660410e-01 0.000000e+00
    outer loop
      vertex -3.753331e+01 -2.686074e+01 7.000000e+00
      vertex -3.753331e+01 -2.686074e+01 0.000000e+00
      vertex -4.233714e+01 -2.408746e+01 7.000000e+00
    endloop
  endfacet
  facet normal 4.999730e-01 8.660410e-01 0.000000e+00
    outer loop
      vertex -4.233714e+01 -2.408746e+01 7.000000e+00
      vertex -3.753331e+01 -2.686074e+01 0.000000e+00
      vertex -4.233714e+01 -2.408746e+01 0.000000e+00
    endloop
  endfacet
  facet normal 5.000002e-01 -8.660253e-01 0.000000e+00
    outer loop
      vertex -3.753331e+01 -2.963936e+01 0.000000e+00
      vertex -3.753331e+01 -2.963936e+01 7.000000e+00
      vertex -4.233653e+01 -3.241250e+01 7.000000e+00
    endloop
  endfacet
  facet normal 5.000002e-01 -8.660253e-01 0.000000e+00
    outer loop
      vertex -4.233653e+01 -3.241250e+01 0.000000e+00
      vertex -3.753331e+01 -2.963936e+01 0.000000e+00
      vertex -4.233653e+01 -3.241250e+01 7.000000e+00
    endloop
  endfacet
  facet normal 0.000000e+00 0.000000e+00 1.000000e+00
    outer loop
      vertex -3.753331e+01 -2.686074e+01 7.000000e+00
      vertex -4.233714e+01 -2.408746e+01 7.000000e+00
      vertex -4.233653e+01 -3.241250e+01 7.000000e+00
    endloop
  endfacet
  facet normal 0.000000e+00 0.000000e+00 1.000000e+00
    outer loop
      vertex -7.533314e+00 -3.500000e+01 7.000000e+00
      vertex -3.753331e+01 -2.686074e+01 7.000000e+00
      vertex -3.753331e+01 -2.963936e+01 7.000000e+00
    endloop
  endfacet
  facet normal 0.000000e+00 0.000000e+00 1.000000e+00
    outer loop
      vertex -3.753331e+01 -2.963936e+01 7.000000e+00
      vertex -3.753331e+01 -2.686074e+01 7.000000e+00
      vertex -4.233653e+01 -3.241250e+01 7.000000e+00
    endloop
  endfacet
  facet normal 0.000000e+00 0.000000e+00 1.000000e+00
    outer loop
      vertex -7.533314e+00 -3.500000e+01 7.000000e+00
      vertex -3.753331e+01 -2.963936e+01 7.000000e+00
      vertex -3.753331e+01 -3.500000e+01 7.000000e+00
    endloop
  endfacet
  facet normal 0.000000e+00 0.000000e+00 1.000000e+00
    outer loop
      vertex -1.253139e+01 -3.275000e+01 7.000000e+00
      vertex -1.253128e+01 -2.375020e+01 7.000000e+00
      vertex -3.753331e+01 -1.313936e+01 7.000000e+00
    endloop
  endfacet
  facet normal 0.000000e+00 0.000000e+00 1.000000e+00
    outer loop
      vertex -7.533314e+00 -2.986436e+01 7.000000e+00
      vertex -1.253139e+01 -3.275000e+01 7.000000e+00
      vertex -7.533314e+00 -3.500000e+01 7.000000e+00
    endloop
  endfacet
  facet normal 0.000000e+00 0.000000e+00 1.000000e+00
    outer loop
      vertex -3.753331e+01 -1.036074e+01 7.000000e+00
      vertex -4.233714e+01 -7.587457e+00 7.000000e+00
      vertex -4.233653e+01 -1.591250e+01 7.000000e+00
    endloop
  endfacet
  facet normal 0.000000e+00 0.000000e+00 1.000000e+00
    outer loop
      vertex -7.533314e+00 -2.150000e+01 7.000000e+00
      vertex -1.253128e+01 -2.375020e+01 7.000000e+00
      vertex -7.533314e+00 -2.663569e+01 7.000000e+00
    endloop
  endfacet
  facet normal 0.000000e+00 0.000000e+00 1.000000e+00
    outer loop
      vertex -7.533314e+00 -1.336436e+01 7.000000e+00
      vertex -1.253139e+01 -1.625000e+01 7.000000e+00
      vertex -7.533314e+00 -1.850000e+01 7.000000e+00
    endloop
  endfacet
  facet normal 0.000000e+00 0.000000e+00 1.000000e+00
    outer loop
      vertex -7.533314e+00 -5.000000e+00 7.000000e+00
      vertex -1.253128e+01 -7.250198e+00 7.000000e+00
      vertex -7.533314e+00 -1.013569e+01 7.000000e+00
    endloop
  endfacet
  facet normal 0.000000e+00 0.000000e+00 1.000000e+00
    outer loop
      vertex -3.753331e+01 -5.000000e+00 7.000000e+00
      vertex -1.253128e+01 -7.250198e+00 7.000000e+00
      vertex -7.533314e+00 -5.000000e+00 7.000000e+00
    endloop
  endfacet
  facet normal 0.000000e+00 0.000000e+00 1.000000e+00
    outer loop
      vertex -4.233653e+01 -1.591250e+01 7.000000e+00
      vertex -3.753331e+01 -1.313936e+01 7.000000e+00
      vertex -3.753331e+01 -1.036074e+01 7.000000e+00
    endloop
  endfacet
  facet normal 0.000000e+00 0.000000e+00 1.000000e+00
    outer loop
      vertex -3.753331e+01 -5.000000e+00 7.000000e+00
      vertex -3.753331e+01 -1.036074e+01 7.000000e+00
      vertex -1.253128e+01 -7.250198e+00 7.000000e+00
    endloop
  endfacet
  facet normal 0.000000e+00 0.000000e+00 1.000000e+00
    outer loop
      vertex -3.753331e+01 -1.036074e+01 7.000000e+00
      vertex -3.753331e+01 -1.313936e+01 7.000000e+00
      vertex -1.253128e+01 -7.250198e+00 7.000000e+00
    endloop
  endfacet
  facet normal 0.000000e+00 0.000000e+00 1.000000e+00
    outer loop
      vertex -3.753331e+01 -1.313936e+01 7.000000e+00
      vertex -7.533314e+00 -1.850000e+01 7.000000e+00
      vertex -1.253139e+01 -1.625000e+01 7.000000e+00
    endloop
  endfacet
  facet normal 0.000000e+00 0.000000e+00 1.000000e+00
    outer loop
      vertex -3.753331e+01 -1.313936e+01 7.000000e+00
      vertex -7.533314e+00 -2.150000e+01 7.000000e+00
      vertex -7.533314e+00 -1.850000e+01 7.000000e+00
    endloop
  endfacet
  facet normal 0.000000e+00 0.000000e+00 1.000000e+00
    outer loop
      vertex -3.753331e+01 -1.313936e+01 7.000000e+00
      vertex -1.253128e+01 -2.375020e+01 7.000000e+00
      vertex -7.533314e+00 -2.150000e+01 7.000000e+00
    endloop
  endfacet
  facet normal 0.000000e+00 0.000000e+00 1.000000e+00
    outer loop
      vertex -1.253139e+01 -1.625000e+01 7.000000e+00
      vertex -1.253128e+01 -7.250198e+00 7.000000e+00
      vertex -3.753331e+01 -1.313936e+01 7.000000e+00
    endloop
  endfacet
  facet normal 0.000000e+00 0.000000e+00 1.000000e+00
    outer loop
      vertex -1.253139e+01 -3.275000e+01 7.000000e+00
      vertex -3.753331e+01 -2.686074e+01 7.000000e+00
      vertex -7.533314e+00 -3.500000e+01 7.000000e+00
    endloop
  endfacet
  facet normal 0.000000e+00 0.000000e+00 1.000000e+00
    outer loop
      vertex -3.753331e+01 -1.313936e+01 7.000000e+00
      vertex -3.753331e+01 -2.686074e+01 7.000000e+00
      vertex -1.253139e+01 -3.275000e+01 7.000000e+00
    endloop
  endfacet
  facet normal -1.000000e+00 -0.000000e+00 -0.000000e+00
    outer loop
      vertex -3.753331e+01 -3.500000e+01 0.000000e+00
      vertex -3.753331e+01 -3.500000e+01 7.000000e+00
      vertex -3.753331e+01 -2.963936e+01 0.000000e+00
    endloop
  endfacet
  facet normal -1.000000e+00 0.000000e+00 0.000000e+00
    outer loop
      vertex -3.753331e+01 -2.963936e+01 0.000000e+00
      vertex -3.753331e+01 -3.500000e+01 7.000000e+00
      vertex -3.753331e+01 -2.963936e+01 7.000000e+00
    endloop
  endfacet
  facet normal 0.000000e+00 -1.000000e+00 0.000000e+00
    outer loop
      vertex -3.753331e+01 -3.500000e+01 7.000000e+00
      vertex -3.753331e+01 -3.500000e+01 0.000000e+00
      vertex -7.533314e+00 -3.500000e+01 0.000000e+00
    endloop
  endfacet
  facet normal 0.000000e+00 -1.000000e+00 0.000000e+00
    outer loop
      vertex -7.533314e+00 -3.500000e+01 7.000000e+00
      vertex -3.753331e+01 -3.500000e+01 7.000000e+00
      vertex -7.533314e+00 -3.500000e+01 0.000000e+00
    endloop
  endfacet
  facet normal 1.000000e+00 0.000000e+00 0.000000e+00
    outer loop
      vertex -7.533314e+00 -3.500000e+01 7.000000e+00
      vertex -7.533314e+00 -3.500000e+01 0.000000e+00
      vertex -7.533314e+00 -2.986436e+01 0.000000e+00
    endloop
  endfacet
  facet normal 1.000000e+00 0.000000e+00 0.000000e+00
    outer loop
      vertex -7.533314e+00 -2.986436e+01 7.000000e+00
      vertex -7.533314e+00 -3.500000e+01 7.000000e+00
      vertex -7.533314e+00 -2.986436e+01 0.000000e+00
    endloop
  endfacet
  facet normal -5.000002e-01 8.660253e-01 0.000000e+00
    outer loop
      vertex -1.253139e+01 -3.275000e+01 0.000000e+00
      vertex -1.253139e+01 -3.275000e+01 7.000000e+00
      vertex -7.533314e+00 -2.986436e+01 0.000000e+00
    endloop
  endfacet
  facet normal -5.000002e-01 8.660253e-01 0.000000e+00
    outer loop
      vertex -7.533314e+00 -2.986436e+01 0.000000e+00
      vertex -1.253139e+01 -3.275000e+01 7.000000e+00
      vertex -7.533314e+00 -2.986436e+01 7.000000e+00
    endloop
  endfacet
  facet normal 1.000000e+00 -1.300000e-05 0.000000e+00
    outer loop
      vertex -1.253139e+01 -3.275000e+01 7.000000e+00
      vertex -1.253139e+01 -3.275000e+01 0.000000e+00
      vertex -1.253128e+01 -2.375020e+01 0.000000e+00
    endloop
  endfacet
  facet normal 1.000000e+00 -1.300000e-05 0.000000e+00
    outer loop
      vertex -1.253128e+01 -2.375020e+01 7.000000e+00
      vertex -1.253139e+01 -3.275000e+01 7.000000e+00
      vertex -1.253128e+01 -2.375020e+01 0.000000e+00
    endloop
  endfacet
  facet normal -4.999889e-01 -8.660318e-01 0.000000e+00
    outer loop
      vertex -1.253128e+01 -2.375020e+01 7.000000e+00
      vertex -1.253128e+01 -2.375020e+01 0.000000e+00
      vertex -7.533314e+00 -2.663569e+01 0.000000e+00
    endloop
  endfacet
  facet normal -4.999889e-01 -8.660318e-01 0.000000e+00
    outer loop
      vertex -7.533314e+00 -2.663569e+01 7.000000e+00
      vertex -1.253128e+01 -2.375020e+01 7.000000e+00
      vertex -7.533314e+00 -2.663569e+01 0.000000e+00
    endloop
  endfacet
  facet normal 1.000000e+00 0.000000e+00 0.000000e+00
    outer loop
      vertex -7.533314e+00 -2.663569e+01 7.000000e+00
      vertex -7.533314e+00 -2.663569e+01 0.000000e+00
      vertex -7.533314e+00 -2.150000e+01 0.000000e+00
    endloop
  endfacet
  facet normal 1.000000e+00 0.000000e+00 0.000000e+00
    outer loop
      vertex -7.533314e+00 -2.150000e+01 7.000000e+00
      vertex -7.533314e+00 -2.663569e+01 7.000000e+00
      vertex -7.533314e+00 -2.150000e+01 0.000000e+00
    endloop
  endfacet
  facet normal 1.000000e+00 0.000000e+00 0.000000e+00
    outer loop
      vertex -7.533314e+00 -2.150000e+01 7.000000e+00
      vertex -7.533314e+00 -2.150000e+01 0.000000e+00
      vertex -7.533314e+00 -1.850000e+01 0.000000e+00
    endloop
  endfacet
  facet normal 1.000000e+00 0.000000e+00 0.000000e+00
    outer loop
      vertex -7.533314e+00 -1.850000e+01 7.000000e+00
      vertex -7.533314e+00 -2.150000e+01 7.000000e+00
      vertex -7.533314e+00 -1.850000e+01 0.000000e+00
    endloop
  endfacet
  facet normal 1.000000e+00 0.000000e+00 0.000000e+00
    outer loop
      vertex -7.533314e+00 -1.850000e+01 7.000000e+00
      vertex -7.533314e+00 -1.850000e+01 0.000000e+00
      vertex -7.533314e+00 -1.336436e+01 0.000000e+00
    endloop
  endfacet
  facet normal 1.000000e+00 0.000000e+00 0.000000e+00
    outer loop
      vertex -7.533314e+00 -1.336436e+01 7.000000e+00
      vertex -7.533314e+00 -1.850000e+01 7.000000e+00
      vertex -7.533314e+00 -1.336436e+01 0.000000e+00
    endloop
  endfacet
  facet normal -5.000002e-01 8.660253e-01 0.000000e+00
    outer loop
      vertex -1.253139e+01 -1.625000e+01 0.000000e+00
      vertex -1.253139e+01 -1.625000e+01 7.000000e+00
      vertex -7.533314e+00 -1.336436e+01 0.000000e+00
    endloop
  endfacet
  facet normal -5.000002e-01 8.660253e-01 0.000000e+00
    outer loop
      vertex -7.533314e+00 -1.336436e+01 0.000000e+00
      vertex -1.253139e+01 -1.625000e+01 7.000000e+00
      vertex -7.533314e+00 -1.336436e+01 7.000000e+00
    endloop
  endfacet
  facet normal 1.000000e+00 -1.300000e-05 0.000000e+00
    outer loop
      vertex -1.253139e+01 -1.625000e+01 7.000000e+00
      vertex -1.253139e+01 -1.625000e+01 0.000000e+00
      vertex -1.253128e+01 -7.250198e+00 0.000000e+00
    endloop
  endfacet
  facet normal 1.000000e+00 -1.300000e-05 0.000000e+00
    outer loop
      vertex -1.253128e+01 -7.250198e+00 7.000000e+00
      vertex -1.253139e+01 -1.625000e+01 7.000000e+00
      vertex -1.253128e+01 -7.250198e+00 0.000000e+00
    endloop
  endfacet
  facet normal -4.999889e-01 -8.660318e-01 0.000000e+00
    outer loop
      vertex -1.253128e+01 -7.250198e+00 7.000000e+00
      vertex -1.253128e+01 -7.250198e+00 0.000000e+00
      vertex -7.533314e+00 -1.013569e+01 0.000000e+00
    endloop
  endfacet
  facet normal -4.999889e-01 -8.660318e-01 0.000000e+00
    outer loop
      vertex -7.533314e+00 -1.013569e+01 7.000000e+00
      vertex -1.253128e+01 -7.250198e+00 7.000000e+00
      vertex -7.533314e+00 -1.013569e+01 0.000000e+00
    endloop
  endfacet
  facet normal 1.000000e+00 0.000000e+00 0.000000e+00
    outer loop
      vertex -7.533314e+00 -1.013569e+01 7.000000e+00
      vertex -7.533314e+00 -1.013569e+01 0.000000e+00
      vertex -7.533314e+00 -5.000000e+00 0.000000e+00
    endloop
  endfacet
  facet normal 1.000000e+00 0.000000e+00 0.000000e+00
    outer loop
      vertex -7.533314e+00 -5.000000e+00 7.000000e+00
      vertex -7.533314e+00 -1.013569e+01 7.000000e+00
      vertex -7.533314e+00 -5.000000e+00 0.000000e+00
    endloop
  endfacet
  facet normal 0.000000e+00 1.000000e+00 0.000000e+00
    outer loop
      vertex -3.753331e+01 -5.000000e+00 0.000000e+00
      vertex -3.753331e+01 -5.000000e+00 7.000000e+00
      vertex -7.533314e+00 -5.000000e+00 0.000000e+00
    endloop
  endfacet
  facet normal 0.000000e+00 1.000000e+00 0.000000e+00
    outer loop
      vertex -7.533314e+00 -5.000000e+00 0.000000e+00
      vertex -3.753331e+01 -5.000000e+00 7.000000e+00
      vertex -7.533314e+00 -5.000000e+00 7.000000e+00
    endloop
  endfacet
  facet normal -1.000000e+00 -0.000000e+00 -0.000000e+00
    outer loop
      vertex -3.753331e+01 -1.036074e+01 0.000000e+00
      vertex -3.753331e+01 -1.036074e+01 7.000000e+00
      vertex -3.753331e+01 -5.000000e+00 0.000000e+00
    endloop
  endfacet
  facet normal -1.000000e+00 0.000000e+00 0.000000e+00
    outer loop
      vertex -3.753331e+01 -5.000000e+00 0.000000e+00
      vertex -3.753331e+01 -1.036074e+01 7.000000e+00
      vertex -3.753331e+01 -5.000000e+00 7.000000e+00
    endloop
  endfacet
  facet normal 4.999730e-01 8.660410e-01 0.000000e+00
    outer loop
      vertex -3.753331e+01 -1.036074e+01 7.000000e+00
      vertex -3.753331e+01 -1.036074e+01 0.000000e+00
      vertex -4.233714e+01 -7.587457e+00 7.000000e+00
    endloop
  endfacet
  facet normal 4.999730e-01 8.660410e-01 0.000000e+00
    outer loop
      vertex -4.233714e+01 -7.587457e+00 7.000000e+00
      vertex -3.753331e+01 -1.036074e+01 0.000000e+00
      vertex -4.233714e+01 -7.587457e+00 0.000000e+00
    endloop
  endfacet
  facet normal -1.000000e+00 -7.200000e-05 0.000000e+00
    outer loop
      vertex -4.233653e+01 -1.591250e+01 7.000000e+00
      vertex -4.233714e+01 -7.587457e+00 7.000000e+00
      vertex -4.233653e+01 -1.591250e+01 0.000000e+00
    endloop
  endfacet
  facet normal -1.000000e+00 -7.200000e-05 0.000000e+00
    outer loop
      vertex -4.233653e+01 -1.591250e+01 0.000000e+00
      vertex -4.233714e+01 -7.587457e+00 7.000000e+00
      vertex -4.233714e+01 -7.587457e+00 0.000000e+00
    endloop
  endfacet
  facet normal 5.000002e-01 -8.660253e-01 0.000000e+00
    outer loop
      vertex -3.753331e+01 -1.313936e+01 0.000000e+00
      vertex -3.753331e+01 -1.313936e+01 7.000000e+00
      vertex -4.233653e+01 -1.591250e+01 7.000000e+00
    endloop
  endfacet
  facet normal 5.000002e-01 -8.660253e-01 0.000000e+00
    outer loop
      vertex -4.233653e+01 -1.591250e+01 0.000000e+00
      vertex -3.753331e+01 -1.313936e+01 0.000000e+00
      vertex -4.233653e+01 -1.591250e+01 7.000000e+00
    endloop
  endfacet
  facet normal -1.000000e+00 -0.000000e+00 -0.000000e+00
    outer loop
      vertex -3.753331e+01 -2.686074e+01 0.000000e+00
      vertex -3.753331e+01 -2.686074e+01 7.000000e+00
      vertex -3.753331e+01 -1.313936e+01 0.000000e+00
    endloop
  endfacet
  facet normal -1.000000e+00 0.000000e+00 0.000000e+00
    outer loop
      vertex -3.753331e+01 -1.313936e+01 0.000000e+00
      vertex -3.753331e+01 -2.686074e+01 7.000000e+00
      vertex -3.753331e+01 -1.313936e+01 7.000000e+00
    endloop
  endfacet
  facet normal -1.000000e+00 -1.200000e-05 0.000000e+00
    outer loop
      vertex 7.728417e+00 -3.230000e+01 7.000000e+00
      vertex 7.728320e+00 -2.419983e+01 7.000000e+00
      vertex 7.728417e+00 -3.230000e+01 0.000000e+00
    endloop
  endfacet
  facet normal -1.000000e+00 -1.200000e-05 0.000000e+00
    outer loop
      vertex 7.728417e+00 -3.230000e+01 0.000000e+00
      vertex 7.728320e+00 -2.419983e+01 7.000000e+00
      vertex 7.728320e+00 -2.419983e+01 0.000000e+00
    endloop
  endfacet
  facet normal 0.000000e+00 0.000000e+00 -1.000000e+00
    outer loop
      vertex 7.728320e+00 -2.419983e+01 0.000000e+00
      vertex 1.246669e+01 -2.693560e+01 0.000000e+00
      vertex 7.728417e+00 -3.230000e+01 0.000000e+00
    endloop
  endfacet
  facet normal 0.000000e+00 0.000000e+00 -1.000000e+00
    outer loop
      vertex 3.746861e+01 -1.625000e+01 0.000000e+00
      vertex 1.246669e+01 -2.956436e+01 0.000000e+00
      vertex 1.246669e+01 -2.693560e+01 0.000000e+00
    endloop
  endfacet
  facet normal 0.000000e+00 0.000000e+00 -1.000000e+00
    outer loop
      vertex 1.246669e+01 -1.043560e+01 0.000000e+00
      vertex 1.246669e+01 -1.306436e+01 0.000000e+00
      vertex 7.728320e+00 -7.699832e+00 0.000000e+00
    endloop
  endfacet
  facet normal 0.000000e+00 0.000000e+00 -1.000000e+00
    outer loop
      vertex 1.246669e+01 -1.306436e+01 0.000000e+00
      vertex 7.728417e+00 -1.580000e+01 0.000000e+00
      vertex 7.728320e+00 -7.699832e+00 0.000000e+00
    endloop
  endfacet
  facet normal 0.000000e+00 0.000000e+00 -1.000000e+00
    outer loop
      vertex 3.746872e+01 -7.250198e+00 0.000000e+00
      vertex 1.246669e+01 -1.306436e+01 0.000000e+00
      vertex 4.246669e+01 -5.000000e+00 0.000000e+00
    endloop
  endfacet
  facet normal 0.000000e+00 0.000000e+00 -1.000000e+00
    outer loop
      vertex 4.246669e+01 -5.000000e+00 0.000000e+00
      vertex 1.246669e+01 -1.043560e+01 0.000000e+00
      vertex 1.246669e+01 -5.000000e+00 0.000000e+00
    endloop
  endfacet
  facet normal 0.000000e+00 0.000000e+00 -1.000000e+00
    outer loop
      vertex 1.246669e+01 -1.306436e+01 0.000000e+00
      vertex 1.246669e+01 -1.043560e+01 0.000000e+00
      vertex 4.246669e+01 -5.000000e+00 0.000000e+00
    endloop
  endfacet
  facet normal 0.000000e+00 0.000000e+00 -1.000000e+00
    outer loop
      vertex 3.746861e+01 -1.625000e+01 0.000000e+00
      vertex 1.246669e+01 -2.693560e+01 0.000000e+00
      vertex 3.746872e+01 -7.250198e+00 0.000000e+00
    endloop
  endfacet
  facet normal 0.000000e+00 0.000000e+00 -1.000000e+00
    outer loop
      vertex 1.246669e+01 -2.693560e+01 0.000000e+00
      vertex 1.246669e+01 -1.306436e+01 0.000000e+00
      vertex 3.746872e+01 -7.250198e+00 0.000000e+00
    endloop
  endfacet
  facet normal 0.000000e+00 0.000000e+00 -1.000000e+00
    outer loop
      vertex 1.246669e+01 -2.956436e+01 0.000000e+00
      vertex 7.728417e+00 -3.230000e+01 0.000000e+00
      vertex 1.246669e+01 -2.693560e+01 0.000000e+00
    endloop
  endfacet
  facet normal 0.000000e+00 0.000000e+00 -1.000000e+00
    outer loop
      vertex 3.746861e+01 -1.625000e+01 0.000000e+00
      vertex 4.246669e+01 -1.336436e+01 0.000000e+00
      vertex 4.246669e+01 -1.850000e+01 0.000000e+00
    endloop
  endfacet
  facet normal 0.000000e+00 0.000000e+00 -1.000000e+00
    outer loop
      vertex 3.746872e+01 -2.375020e+01 0.000000e+00
      vertex 4.246669e+01 -2.150000e+01 0.000000e+00
      vertex 4.246669e+01 -2.663569e+01 0.000000e+00
    endloop
  endfacet
  facet normal 0.000000e+00 0.000000e+00 -1.000000e+00
    outer loop
      vertex 1.246669e+01 -2.956436e+01 0.000000e+00
      vertex 4.246669e+01 -1.850000e+01 0.000000e+00
      vertex 4.246669e+01 -2.150000e+01 0.000000e+00
    endloop
  endfacet
  facet normal 0.000000e+00 0.000000e+00 -1.000000e+00
    outer loop
      vertex 1.246669e+01 -2.956436e+01 0.000000e+00
      vertex 3.746861e+01 -1.625000e+01 0.000000e+00
      vertex 4.246669e+01 -1.850000e+01 0.000000e+00
    endloop
  endfacet
  facet normal 0.000000e+00 0.000000e+00 -1.000000e+00
    outer loop
      vertex 3.746861e+01 -3.275000e+01 0.000000e+00
      vertex 4.246669e+01 -2.986436e+01 0.000000e+00
      vertex 4.246669e+01 -3.500000e+01 0.000000e+00
    endloop
  endfacet
  facet normal 0.000000e+00 0.000000e+00 -1.000000e+00
    outer loop
      vertex 3.746872e+01 -7.250198e+00 0.000000e+00
      vertex 4.246669e+01 -5.000000e+00 0.000000e+00
      vertex 4.246669e+01 -1.013569e+01 0.000000e+00
    endloop
  endfacet
  facet normal 0.000000e+00 0.000000e+00 -1.000000e+00
    outer loop
      vertex 1.246669e+01 -2.956436e+01 0.000000e+00
      vertex 4.246669e+01 -2.150000e+01 0.000000e+00
      vertex 3.746872e+01 -2.375020e+01 0.000000e+00
    endloop
  endfacet
  facet normal 0.000000e+00 0.000000e+00 -1.000000e+00
    outer loop
      vertex 1.246669e+01 -2.956436e+01 0.000000e+00
      vertex 3.746872e+01 -2.375020e+01 0.000000e+00
      vertex 3.746861e+01 -3.275000e+01 0.000000e+00
    endloop
  endfacet
  facet normal 0.000000e+00 0.000000e+00 -1.000000e+00
    outer loop
      vertex 1.246669e+01 -2.956436e+01 0.000000e+00
      vertex 3.746861e+01 -3.275000e+01 0.000000e+00
      vertex 4.246669e+01 -3.500000e+01 0.000000e+00
    endloop
  endfacet
  facet normal 0.000000e+00 0.000000e+00 -1.000000e+00
    outer loop
      vertex 1.246669e+01 -2.956436e+01 0.000000e+00
      vertex 4.246669e+01 -3.500000e+01 0.000000e+00
      vertex 1.246669e+01 -3.500000e+01 0.000000e+00
    endloop
  endfacet
  facet normal 5.000103e-01 8.660195e-01 0.000000e+00
    outer loop
      vertex 1.246669e+01 -2.693560e+01 7.000000e+00
      vertex 1.246669e+01 -2.693560e+01 0.000000e+00
      vertex 7.728320e+00 -2.419983e+01 7.000000e+00
    endloop
  endfacet
  facet normal 5.000103e-01 8.660195e-01 0.000000e+00
    outer loop
      vertex 7.728320e+00 -2.419983e+01 7.000000e+00
      vertex 1.246669e+01 -2.693560e+01 0.000000e+00
      vertex 7.728320e+00 -2.419983e+01 0.000000e+00
    endloop
  endfacet
  facet normal 5.000002e-01 -8.660253e-01 0.000000e+00
    outer loop
      vertex 1.246669e+01 -2.956436e+01 0.000000e+00
      vertex 1.246669e+01 -2.956436e+01 7.000000e+00
      vertex 7.728417e+00 -3.230000e+01 7.000000e+00
    endloop
  endfacet
  facet normal 5.000002e-01 -8.660253e-01 0.000000e+00
    outer loop
      vertex 7.728417e+00 -3.230000e+01 0.000000e+00
      vertex 1.246669e+01 -2.956436e+01 0.000000e+00
      vertex 7.728417e+00 -3.230000e+01 7.000000e+00
    endloop
  endfacet
  facet normal 0.000000e+00 0.000000e+00 1.000000e+00
    outer loop
      vertex 1.246669e+01 -2.693560e+01 7.000000e+00
      vertex 7.728320e+00 -2.419983e+01 7.000000e+00
      vertex 7.728417e+00 -3.230000e+01 7.000000e+00
    endloop
  endfacet
  facet normal 0.000000e+00 0.000000e+00 1.000000e+00
    outer loop
      vertex 4.246669e+01 -3.500000e+01 7.000000e+00
      vertex 1.246669e+01 -2.693560e+01 7.000000e+00
      vertex 1.246669e+01 -2.956436e+01 7.000000e+00
    endloop
  endfacet
  facet normal 0.000000e+00 0.000000e+00 1.000000e+00
    outer loop
      vertex 1.246669e+01 -2.956436e+01 7.000000e+00
      vertex 1.246669e+01 -2.693560e+01 7.000000e+00
      vertex 7.728417e+00 -3.230000e+01 7.000000e+00
    endloop
  endfacet
  facet normal 0.000000e+00 0.000000e+00 1.000000e+00
    outer loop
      vertex 4.246669e+01 -3.500000e+01 7.000000e+00
      vertex 1.246669e+01 -2.956436e+01 7.000000e+00
      vertex 1.246669e+01 -3.500000e+01 7.000000e+00
    endloop
  endfacet
  facet normal 0.000000e+00 0.000000e+00 1.000000e+00
    outer loop
      vertex 3.746861e+01 -3.275000e+01 7.000000e+00
      vertex 3.746872e+01 -2.375020e+01 7.000000e+00
      vertex 1.246669e+01 -1.306436e+01 7.000000e+00
    endloop
  endfacet
  facet normal 0.000000e+00 0.000000e+00 1.000000e+00
    outer loop
      vertex 4.246669e+01 -2.986436e+01 7.000000e+00
      vertex 3.746861e+01 -3.275000e+01 7.000000e+00
      vertex 4.246669e+01 -3.500000e+01 7.000000e+00
    endloop
  endfacet
  facet normal 0.000000e+00 0.000000e+00 1.000000e+00
    outer loop
      vertex 1.246669e+01 -1.043560e+01 7.000000e+00
      vertex 7.728320e+00 -7.699832e+00 7.000000e+00
      vertex 7.728417e+00 -1.580000e+01 7.000000e+00
    endloop
  endfacet
  facet normal 0.000000e+00 0.000000e+00 1.000000e+00
    outer loop
      vertex 4.246669e+01 -2.150000e+01 7.000000e+00
      vertex 3.746872e+01 -2.375020e+01 7.000000e+00
      vertex 4.246669e+01 -2.663569e+01 7.000000e+00
    endloop
  endfacet
  facet normal 0.000000e+00 0.000000e+00 1.000000e+00
    outer loop
      vertex 4.246669e+01 -1.336436e+01 7.000000e+00
      vertex 3.746861e+01 -1.625000e+01 7.000000e+00
      vertex 4.246669e+01 -1.850000e+01 7.000000e+00
    endloop
  endfacet
  facet normal 0.000000e+00 0.000000e+00 1.000000e+00
    outer loop
      vertex 4.246669e+01 -5.000000e+00 7.000000e+00
      vertex 3.746872e+01 -7.250198e+00 7.000000e+00
      vertex 4.246669e+01 -1.013569e+01 7.000000e+00
    endloop
  endfacet
  facet normal 0.000000e+00 0.000000e+00 1.000000e+00
    outer loop
      vertex 1.246669e+01 -5.000000e+00 7.000000e+00
      vertex 3.746872e+01 -7.250198e+00 7.000000e+00
      vertex 4.246669e+01 -5.000000e+00 7.000000e+00
    endloop
  endfacet
  facet normal 0.000000e+00 0.000000e+00 1.000000e+00
    outer loop
      vertex 7.728417e+00 -1.580000e+01 7.000000e+00
      vertex 1.246669e+01 -1.306436e+01 7.000000e+00
      vertex 1.246669e+01 -1.043560e+01 7.000000e+00
    endloop
  endfacet
  facet normal 0.000000e+00 0.000000e+00 1.000000e+00
    outer loop
      vertex 1.246669e+01 -5.000000e+00 7.000000e+00
      vertex 1.246669e+01 -1.043560e+01 7.000000e+00
      vertex 3.746872e+01 -7.250198e+00 7.000000e+00
    endloop
  endfacet
  facet normal 0.000000e+00 0.000000e+00 1.000000e+00
    outer loop
      vertex 1.246669e+01 -1.043560e+01 7.000000e+00
      vertex 1.246669e+01 -1.306436e+01 7.000000e+00
      vertex 3.746872e+01 -7.250198e+00 7.000000e+00
    endloop
  endfacet
  facet normal 0.000000e+00 0.000000e+00 1.000000e+00
    outer loop
      vertex 1.246669e+01 -1.306436e+01 7.000000e+00
      vertex 4.246669e+01 -1.850000e+01 7.000000e+00
      vertex 3.746861e+01 -1.625000e+01 7.000000e+00
    endloop
  endfacet
  facet normal 0.000000e+00 0.000000e+00 1.000000e+00
    outer loop
      vertex 1.246669e+01 -1.306436e+01 7.000000e+00
      vertex 4.246669e+01 -2.150000e+01 7.000000e+00
      vertex 4.246669e+01 -1.850000e+01 7.000000e+00
    endloop
  endfacet
  facet normal 0.000000e+00 0.000000e+00 1.000000e+00
    outer loop
      vertex 1.246669e+01 -1.306436e+01 7.000000e+00
      vertex 3.746872e+01 -2.375020e+01 7.000000e+00
      vertex 4.246669e+01 -2.150000e+01 7.000000e+00
    endloop
  endfacet
  facet normal 0.000000e+00 0.000000e+00 1.000000e+00
    outer loop
      vertex 3.746861e+01 -1.625000e+01 7.000000e+00
      vertex 3.746872e+01 -7.250198e+00 7.000000e+00
      vertex 1.246669e+01 -1.306436e+01 7.000000e+00
    endloop
  endfacet
  facet normal 0.000000e+00 0.000000e+00 1.000000e+00
    outer loop
      vertex 3.746861e+01 -3.275000e+01 7.000000e+00
      vertex 1.246669e+01 -2.693560e+01 7.000000e+00
      vertex 4.246669e+01 -3.500000e+01 7.000000e+00
    endloop
  endfacet
  facet normal 0.000000e+00 0.000000e+00 1.000000e+00
    outer loop
      vertex 1.246669e+01 -1.306436e+01 7.000000e+00
      vertex 1.246669e+01 -2.693560e+01 7.000000e+00
      vertex 3.746861e+01 -3.275000e+01 7.000000e+00
    endloop
  endfacet
  facet normal -1.000000e+00 -0.000000e+00 -0.000000e+00
    outer loop
      vertex 1.246669e+01 -3.500000e+01 0.000000e+00
      vertex 1.246669e+01 -3.500000e+01 7.000000e+00
      vertex 1.246669e+01 -2.956436e+01 0.000000e+00
    endloop
  endfacet
  facet normal -1.000000e+00 0.000000e+00 0.000000e+00
    outer loop
      vertex 1.246669e+01 -2.956436e+01 0.000000e+00
      vertex 1.246669e+01 -3.500000e+01 7.000000e+00
      vertex 1.246669e+01 -2.956436e+01 7.000000e+00
    endloop
  endfacet
  facet normal 0.000000e+00 -1.000000e+00 0.000000e+00
    outer loop
      vertex 1.246669e+01 -3.500000e+01 7.000000e+00
      vertex 1.246669e+01 -3.500000e+01 0.000000e+00
      vertex 4.246669e+01 -3.500000e+01 0.000000e+00
    endloop
  endfacet
  facet normal 0.000000e+00 -1.000000e+00 0.000000e+00
    outer loop
      vertex 4.246669e+01 -3.500000e+01 7.000000e+00
      vertex 1.246669e+01 -3.500000e+01 7.000000e+00
      vertex 4.246669e+01 -3.500000e+01 0.000000e+00
    endloop
  endfacet
  facet normal 1.000000e+00 0.000000e+00 0.000000e+00
    outer loop
      vertex 4.246669e+01 -3.500000e+01 7.000000e+00
      vertex 4.246669e+01 -3.500000e+01 0.000000e+00
      vertex 4.246669e+01 -2.986436e+01 0.000000e+00
    endloop
  endfacet
  facet normal 1.000000e+00 0.000000e+00 0.000000e+00
    outer loop
      vertex 4.246669e+01 -2.986436e+01 7.000000e+00
      vertex 4.246669e+01 -3.500000e+01 7.000000e+00
      vertex 4.246669e+01 -2.986436e+01 0.000000e+00
    endloop
  endfacet
  facet normal -5.000002e-01 8.660253e-01 0.000000e+00
    outer loop
      vertex 3.746861e+01 -3.275000e+01 0.000000e+00
      vertex 3.746861e+01 -3.275000e+01 7.000000e+00
      vertex 4.246669e+01 -2.986436e+01 0.000000e+00
    endloop
  endfacet
  facet normal -5.000002e-01 8.660253e-01 0.000000e+00
    outer loop
      vertex 4.246669e+01 -2.986436e+01 0.000000e+00
      vertex 3.746861e+01 -3.275000e+01 7.000000e+00
      vertex 4.246669e+01 -2.986436e+01 7.000000e+00
    endloop
  endfacet
  facet normal 1.000000e+00 -1.300000e-05 0.000000e+00
    outer loop
      vertex 3.746861e+01 -3.275000e+01 7.000000e+00
      vertex 3.746861e+01 -3.275000e+01 0.000000e+00
      vertex 3.746872e+01 -2.375020e+01 0.000000e+00
    endloop
  endfacet
  facet normal 1.000000e+00 -1.300000e-05 0.000000e+00
    outer loop
      vertex 3.746872e+01 -2.375020e+01 7.000000e+00
      vertex 3.746861e+01 -3.275000e+01 7.000000e+00
      vertex 3.746872e+01 -2.375020e+01 0.000000e+00
    endloop
  endfacet
  facet normal -4.999889e-01 -8.660318e-01 0.000000e+00
    outer loop
      vertex 3.746872e+01 -2.375020e+01 7.000000e+00
      vertex 3.746872e+01 -2.375020e+01 0.000000e+00
      vertex 4.246669e+01 -2.663569e+01 0.000000e+00
    endloop
  endfacet
  facet normal -4.999889e-01 -8.660318e-01 0.000000e+00
    outer loop
      vertex 4.246669e+01 -2.663569e+01 7.000000e+00
      vertex 3.746872e+01 -2.375020e+01 7.000000e+00
      vertex 4.246669e+01 -2.663569e+01 0.000000e+00
    endloop
  endfacet
  facet normal 1.000000e+00 0.000000e+00 0.000000e+00
    outer loop
      vertex 4.246669e+01 -2.663569e+01 7.000000e+00
      vertex 4.246669e+01 -2.663569e+01 0.000000e+00
      vertex 4.246669e+01 -2.150000e+01 0.000000e+00
    endloop
  endfacet
  facet normal 1.000000e+00 0.000000e+00 0.000000e+00
    outer loop
      vertex 4.246669e+01 -2.150000e+01 7.000000e+00
      vertex 4.246669e+01 -2.663569e+01 7.000000e+00
      vertex 4.246669e+01 -2.150000e+01 0.000000e+00
    endloop
  endfacet
  facet normal 1.000000e+00 0.000000e+00 0.000000e+00
    outer loop
      vertex 4.246669e+01 -2.150000e+01 7.000000e+00
      vertex 4.246669e+01 -2.150000e+01 0.000000e+00
      vertex 4.246669e+01 -1.850000e+01 0.000000e+00
    endloop
  endfacet
  facet normal 1.000000e+00 0.000000e+00 0.000000e+00
    outer loop
      vertex 4.246669e+01 -1.850000e+01 7.000000e+00
      vertex 4.246669e+01 -2.150000e+01 7.000000e+00
      vertex 4.246669e+01 -1.850000e+01 0.000000e+00
    endloop
  endfacet
  facet normal 1.000000e+00 0.000000e+00 0.000000e+00
    outer loop
      vertex 4.246669e+01 -1.850000e+01 7.000000e+00
      vertex 4.246669e+01 -1.850000e+01 0.000000e+00
      vertex 4.246669e+01 -1.336436e+01 0.000000e+00
    endloop
  endfacet
  facet normal 1.000000e+00 0.000000e+00 0.000000e+00
    outer loop
      vertex 4.246669e+01 -1.336436e+01 7.000000e+00
      vertex 4.246669e+01 -1.850000e+01 7.000000e+00
      vertex 4.246669e+01 -1.336436e+01 0.000000e+00
    endloop
  endfacet
  facet normal -5.000002e-01 8.660253e-01 0.000000e+00
    outer loop
      vertex 3.746861e+01 -1.625000e+01 0.000000e+00
      vertex 3.746861e+01 -1.625000e+01 7.000000e+00
      vertex 4.246669e+01 -1.336436e+01 0.000000e+00
    endloop
  endfacet
  facet normal -5.000002e-01 8.660253e-01 0.000000e+00
    outer loop
      vertex 4.246669e+01 -1.336436e+01 0.000000e+00
      vertex 3.746861e+01 -1.625000e+01 7.000000e+00
      vertex 4.246669e+01 -1.336436e+01 7.000000e+00
    endloop
  endfacet
  facet normal 1.000000e+00 -1.300000e-05 0.000000e+00
    outer loop
      vertex 3.746861e+01 -1.625000e+01 7.000000e+00
      vertex 3.746861e+01 -1.625000e+01 0.000000e+00
      vertex 3.746872e+01 -7.250198e+00 0.000000e+00
    endloop
  endfacet
  facet normal 1.000000e+00 -1.300000e-05 0.000000e+00
    outer loop
      vertex 3.746872e+01 -7.250198e+00 7.000000e+00
      vertex 3.746861e+01 -1.625000e+01 7.000000e+00
      vertex 3.746872e+01 -7.250198e+00 0.000000e+00
    endloop
  endfacet
  facet normal -4.999889e-01 -8.660318e-01 0.000000e+00
    outer loop
      vertex 3.746872e+01 -7.250198e+00 7.000000e+00
      vertex 3.746872e+01 -7.250198e+00 0.000000e+00
      vertex 4.246669e+01 -1.013569e+01 0.000000e+00
    endloop
  endfacet
  facet normal -4.999889e-01 -8.660318e-01 0.000000e+00
    outer loop
      vertex 4.246669e+01 -1.013569e+01 7.000000e+00
      vertex 3.746872e+01 -7.250198e+00 7.000000e+00
      vertex 4.246669e+01 -1.013569e+01 0.000000e+00
    endloop
  endfacet
  facet normal 1.000000e+00 0.000000e+00 0.000000e+00
    outer loop
      vertex 4.246669e+01 -1.013569e+01 7.000000e+00
      vertex 4.246669e+01 -1.013569e+01 0.000000e+00
      vertex 4.246669e+01 -5.000000e+00 0.000000e+00
    endloop
  endfacet
  facet normal 1.000000e+00 0.000000e+00 0.000000e+00
    outer loop
      vertex 4.246669e+01 -5.000000e+00 7.000000e+00
      vertex 4.246669e+01 -1.013569e+01 7.000000e+00
      vertex 4.246669e+01 -5.000000e+00 0.000000e+00
    endloop
  endfacet
  facet normal 0.000000e+00 1.000000e+00 0.000000e+00
    outer loop
      vertex 1.246669e+01 -5.000000e+00 0.000000e+00
      vertex 1.246669e+01 -5.000000e+00 7.000000e+00
      vertex 4.246669e+01 -5.000000e+00 0.000000e+00
    endloop
  endfacet
  facet normal 0.000000e+00 1.000000e+00 0.000000e+00
    outer loop
      vertex 4.246669e+01 -5.000000e+00 0.000000e+00
      vertex 1.246669e+01 -5.000000e+00 7.000000e+00
      vertex 4.246669e+01 -5.000000e+00 7.000000e+00
    endloop
  endfacet
  facet normal -1.000000e+00 -0.000000e+00 -0.000000e+00
    outer loop
      vertex 1.246669e+01 -1.043560e+01 0.000000e+00
      vertex 1.246669e+01 -1.043560e+01 7.000000e+00
      vertex 1.246669e+01 -5.000000e+00 0.000000e+00
    endloop
  endfacet
  facet normal -1.000000e+00 0.000000e+00 0.000000e+00
    outer loop
      vertex 1.246669e+01 -5.000000e+00 0.000000e+00
      vertex 1.246669e+01 -1.043560e+01 7.000000e+00
      vertex 1.246669e+01 -5.000000e+00 7.000000e+00
    endloop
  endfacet
  facet normal 5.000103e-01 8.660195e-01 0.000000e+00
    outer loop
      vertex 1.246669e+01 -1.043560e+01 7.000000e+00
      vertex 1.246669e+01 -1.043560e+01 0.000000e+00
      vertex 7.728320e+00 -7.699832e+00 7.000000e+00
    endloop
  endfacet
  facet normal 5.000103e-01 8.660195e-01 0.000000e+00
    outer loop
      vertex 7.728320e+00 -7.699832e+00 7.000000e+00
      vertex 1.246669e+01 -1.043560e+01 0.000000e+00
      vertex 7.728320e+00 -7.699832e+00 0.000000e+00
    endloop
  endfacet
  facet normal -1.000000e+00 -1.200000e-05 0.000000e+00
    outer loop
      vertex 7.728417e+00 -1.580000e+01 7.000000e+00
      vertex 7.728320e+00 -7.699832e+00 7.000000e+00
      vertex 7.728417e+00 -1.580000e+01 0.000000e+00
    endloop
  endfacet
  facet normal -1.000000e+00 -1.200000e-05 0.000000e+00
    outer loop
      vertex 7.728417e+00 -1.580000e+01 0.000000e+00
      vertex 7.728320e+00 -7.699832e+00 7.000000e+00
      vertex 7.728320e+00 -7.699832e+00 0.000000e+00
    endloop
  endfacet
  facet normal 5.000002e-01 -8.660253e-01 0.000000e+00
    outer loop
      vertex 1.246669e+01 -1.306436e+01 0.000000e+00
      vertex 1.246669e+01 -1.306436e+01 7.000000e+00
      vertex 7.728417e+00 -1.580000e+01 7.000000e+00
    endloop
  endfacet
  facet normal 5.000002e-01 -8.660253e-01 0.000000e+00
    outer loop
      vertex 7.728417e+00 -1.580000e+01 0.000000e+00
      vertex 1.246669e+01 -1.306436e+01 0.000000e+00
      vertex 7.728417e+00 -1.580000e+01 7.000000e+00
    endloop
  endfacet
  facet normal -1.000000e+00 -0.000000e+00 -0.000000e+00
    outer loop
      vertex 1.246669e+01 -2.693560e+01 0.000000e+00
      vertex 1.246669e+01 -2.693560e+01 7.000000e+00
      vertex 1.246669e+01 -1.306436e+01 0.000000e+00
    endloop
  endfacet
  facet normal -1.000000e+00 0.000000e+00 0.000000e+00
    outer loop
      vertex 1.246669e+01 -1.306436e+01 0.000000e+00
      vertex 1.246669e+01 -2.693560e+01 7.000000e+00
      vertex 1.246669e+01 -1.306436e+01 7.000000e+00
    endloop
  endfacet
endsolid Default
